G04 #@! TF.FileFunction,Soldermask,Bot*
%FSLAX46Y46*%
G04 Gerber Fmt 4.6, Leading zero omitted, Abs format (unit mm)*
G04 Created by KiCad (PCBNEW 4.0.5) date 03/19/17 16:49:19*
%MOMM*%
%LPD*%
G01*
G04 APERTURE LIST*
%ADD10C,0.100000*%
%ADD11R,2.100000X2.100000*%
%ADD12O,2.100000X2.100000*%
%ADD13R,2.400000X2.000000*%
%ADD14R,2.000000X2.400000*%
%ADD15R,2.000200X1.598880*%
%ADD16C,1.900000*%
%ADD17C,4.464000*%
G04 APERTURE END LIST*
D10*
D11*
X171000000Y-142500000D03*
D12*
X171000000Y-139960000D03*
X173540000Y-142500000D03*
X173540000Y-139960000D03*
X176080000Y-142500000D03*
X176080000Y-139960000D03*
D11*
X151500000Y-104000000D03*
D12*
X151500000Y-101460000D03*
X151500000Y-98920000D03*
X151500000Y-96380000D03*
D13*
X145750000Y-107750000D03*
X141750000Y-107750000D03*
X145750000Y-110500000D03*
X141750000Y-110500000D03*
X170500000Y-109500000D03*
X174500000Y-109500000D03*
X170500000Y-106000000D03*
X174500000Y-106000000D03*
D14*
X176700000Y-120100000D03*
X176700000Y-124100000D03*
D13*
X184000000Y-122200000D03*
X188000000Y-122200000D03*
D15*
X170699140Y-112500000D03*
X174300860Y-112500000D03*
D11*
X195326000Y-126492000D03*
D12*
X195326000Y-129032000D03*
X195326000Y-131572000D03*
X195326000Y-134112000D03*
X195326000Y-136652000D03*
X195326000Y-139192000D03*
X195326000Y-141732000D03*
X195326000Y-144272000D03*
D11*
X195326000Y-97536000D03*
D12*
X195326000Y-100076000D03*
X195326000Y-102616000D03*
X195326000Y-105156000D03*
X195326000Y-107696000D03*
X195326000Y-110236000D03*
X195326000Y-112776000D03*
X195326000Y-115316000D03*
D11*
X143002000Y-146304000D03*
D12*
X145542000Y-146304000D03*
X148082000Y-146304000D03*
X150622000Y-146304000D03*
X153162000Y-146304000D03*
X155702000Y-146304000D03*
X158242000Y-146304000D03*
X160782000Y-146304000D03*
D16*
X146500000Y-117500000D03*
X146500000Y-122400000D03*
D17*
X137668000Y-91186000D03*
X199898000Y-91186000D03*
X200152000Y-150622000D03*
X137414000Y-150876000D03*
M02*
