G04 #@! TF.FileFunction,Copper,L2,Bot,Signal*
%FSLAX46Y46*%
G04 Gerber Fmt 4.6, Leading zero omitted, Abs format (unit mm)*
G04 Created by KiCad (PCBNEW 4.0.5) date 03/19/17 16:49:18*
%MOMM*%
%LPD*%
G01*
G04 APERTURE LIST*
%ADD10C,0.100000*%
%ADD11R,1.700000X1.700000*%
%ADD12O,1.700000X1.700000*%
%ADD13R,2.000000X1.600000*%
%ADD14R,1.600000X2.000000*%
%ADD15R,1.600200X1.198880*%
%ADD16C,1.500000*%
%ADD17C,4.064000*%
%ADD18C,1.300000*%
%ADD19C,1.000000*%
%ADD20C,0.450000*%
%ADD21C,2.000000*%
%ADD22C,0.400000*%
%ADD23C,0.254000*%
G04 APERTURE END LIST*
D10*
D11*
X171000000Y-142500000D03*
D12*
X171000000Y-139960000D03*
X173540000Y-142500000D03*
X173540000Y-139960000D03*
X176080000Y-142500000D03*
X176080000Y-139960000D03*
D11*
X151500000Y-104000000D03*
D12*
X151500000Y-101460000D03*
X151500000Y-98920000D03*
X151500000Y-96380000D03*
D13*
X145750000Y-107750000D03*
X141750000Y-107750000D03*
X145750000Y-110500000D03*
X141750000Y-110500000D03*
X170500000Y-109500000D03*
X174500000Y-109500000D03*
X170500000Y-106000000D03*
X174500000Y-106000000D03*
D14*
X176700000Y-120100000D03*
X176700000Y-124100000D03*
D13*
X184000000Y-122200000D03*
X188000000Y-122200000D03*
D15*
X170699140Y-112500000D03*
X174300860Y-112500000D03*
D11*
X195326000Y-126492000D03*
D12*
X195326000Y-129032000D03*
X195326000Y-131572000D03*
X195326000Y-134112000D03*
X195326000Y-136652000D03*
X195326000Y-139192000D03*
X195326000Y-141732000D03*
X195326000Y-144272000D03*
D11*
X195326000Y-97536000D03*
D12*
X195326000Y-100076000D03*
X195326000Y-102616000D03*
X195326000Y-105156000D03*
X195326000Y-107696000D03*
X195326000Y-110236000D03*
X195326000Y-112776000D03*
X195326000Y-115316000D03*
D11*
X143002000Y-146304000D03*
D12*
X145542000Y-146304000D03*
X148082000Y-146304000D03*
X150622000Y-146304000D03*
X153162000Y-146304000D03*
X155702000Y-146304000D03*
X158242000Y-146304000D03*
X160782000Y-146304000D03*
D16*
X146500000Y-117500000D03*
X146500000Y-122400000D03*
D17*
X137668000Y-91186000D03*
X199898000Y-91186000D03*
X200152000Y-150622000D03*
X137414000Y-150876000D03*
D18*
X144600000Y-113000000D03*
X164200000Y-145800000D03*
X173750000Y-124750000D03*
X160500000Y-100000000D03*
X147100000Y-113100000D03*
X166810140Y-121810140D03*
X177000000Y-117500000D03*
X175000000Y-103500000D03*
X168000000Y-119000000D03*
X171500000Y-117500000D03*
X173800000Y-127400000D03*
X153500000Y-125500000D03*
X150000000Y-111000000D03*
X152000000Y-111000000D03*
X155000000Y-125500000D03*
X162000000Y-130500000D03*
X163600008Y-123400000D03*
X163600000Y-125400000D03*
X180500000Y-100000000D03*
X180500000Y-119000000D03*
X180500000Y-97500000D03*
X181500000Y-117500000D03*
X165000000Y-105500000D03*
X155500000Y-101000000D03*
X152000000Y-125500000D03*
X148000000Y-111000000D03*
X166500000Y-137000000D03*
X180500000Y-126500000D03*
X180500000Y-131500000D03*
X168500000Y-137000000D03*
X170500000Y-137000000D03*
X180500000Y-136500000D03*
X180500000Y-141500000D03*
X172500000Y-137000000D03*
D19*
X164200000Y-145800000D02*
X160000000Y-141600000D01*
X160000000Y-141600000D02*
X160000000Y-140200000D01*
X145050000Y-113000000D02*
X144600000Y-113000000D01*
X145750000Y-112300000D02*
X145050000Y-113000000D01*
X145750000Y-110500000D02*
X145750000Y-112300000D01*
X145750000Y-107750000D02*
X145750000Y-110500000D01*
X176700000Y-124100000D02*
X174400000Y-124100000D01*
X174400000Y-124100000D02*
X173750000Y-124750000D01*
X173750000Y-124750000D02*
X174100000Y-124400000D01*
X174100000Y-124400000D02*
X174100000Y-112700860D01*
X174100000Y-112700860D02*
X174300860Y-112500000D01*
D20*
X160000000Y-140200000D02*
X160000000Y-140200000D01*
D19*
X145750000Y-107750000D02*
X158250000Y-107750000D01*
D21*
X160000000Y-109500000D02*
X160000000Y-140200000D01*
X160000000Y-140200000D02*
X160000000Y-142000000D01*
D19*
X158250000Y-107750000D02*
X160000000Y-109500000D01*
D21*
X160000000Y-100500000D02*
X160000000Y-109500000D01*
X160500000Y-100000000D02*
X160000000Y-100500000D01*
D19*
X160400000Y-139000000D02*
X160000000Y-139000000D01*
X160000000Y-139000000D02*
X160000000Y-140750000D01*
D21*
X160000000Y-142000000D02*
X160000000Y-140750000D01*
D19*
X176700000Y-120100000D02*
X176700000Y-117800000D01*
X176700000Y-117800000D02*
X177000000Y-117500000D01*
X174500000Y-109500000D02*
X176000000Y-109500000D01*
X176000000Y-109500000D02*
X177000000Y-110500000D01*
X177000000Y-110500000D02*
X177000000Y-117500000D01*
X174500000Y-106000000D02*
X174500000Y-104000000D01*
X174500000Y-104000000D02*
X175000000Y-103500000D01*
X174500000Y-109500000D02*
X174500000Y-106000000D01*
D20*
X170699140Y-112500000D02*
X170699140Y-114699140D01*
X168000000Y-119000000D02*
X168000000Y-119000000D01*
X172500000Y-119000000D02*
X168000000Y-119000000D01*
X173000000Y-118500000D02*
X172500000Y-119000000D01*
X173000000Y-117000000D02*
X173000000Y-118500000D01*
X170699140Y-114699140D02*
X173000000Y-117000000D01*
X170500000Y-109500000D02*
X170500000Y-112300860D01*
X170500000Y-112300860D02*
X170699140Y-112500000D01*
X168000000Y-106000000D02*
X170500000Y-106000000D01*
X166500000Y-107500000D02*
X168000000Y-106000000D01*
X166500000Y-116000000D02*
X166500000Y-107500000D01*
X167500000Y-117000000D02*
X166500000Y-116000000D01*
X171000000Y-117000000D02*
X167500000Y-117000000D01*
X171500000Y-117500000D02*
X171000000Y-117000000D01*
D22*
X182200000Y-122200000D02*
X184000000Y-122200000D01*
X177600000Y-126800000D02*
X182200000Y-122200000D01*
X174400000Y-126800000D02*
X177600000Y-126800000D01*
X173800000Y-127400000D02*
X174400000Y-126800000D01*
D20*
X151000000Y-114000000D02*
X151000000Y-113500000D01*
X151000000Y-113500000D02*
X150000000Y-112500000D01*
X150000000Y-112500000D02*
X150000000Y-111000000D01*
X151000000Y-120500000D02*
X151000000Y-114000000D01*
X153000000Y-122500000D02*
X151000000Y-120500000D01*
X153000000Y-123500000D02*
X153000000Y-122500000D01*
X153000000Y-124500000D02*
X153000000Y-123500000D01*
X153500000Y-125500000D02*
X153000000Y-124500000D01*
X152500000Y-113500000D02*
X152000000Y-113000000D01*
X152000000Y-113000000D02*
X152000000Y-111000000D01*
X154000000Y-123500000D02*
X155000000Y-124500000D01*
X154000000Y-122500000D02*
X154000000Y-122000000D01*
X154000000Y-122000000D02*
X152500000Y-120500000D01*
X155000000Y-124500000D02*
X155000000Y-125500000D01*
X154000000Y-122500000D02*
X154000000Y-123500000D01*
X152500000Y-113500000D02*
X152500000Y-120500000D01*
X173460000Y-140460000D02*
X173460000Y-139040000D01*
X162500000Y-131000000D02*
X162000000Y-130500000D01*
X162500000Y-141500000D02*
X162500000Y-131000000D01*
X168500000Y-147500000D02*
X162500000Y-141500000D01*
X175000000Y-147500000D02*
X168500000Y-147500000D01*
X178000000Y-144500000D02*
X175000000Y-147500000D01*
X178000000Y-139500000D02*
X178000000Y-144500000D01*
X177000000Y-138500000D02*
X178000000Y-139500000D01*
X174000000Y-138500000D02*
X177000000Y-138500000D01*
X173460000Y-139040000D02*
X174000000Y-138500000D01*
X165424999Y-125224991D02*
X164250007Y-124049999D01*
X165424999Y-138224999D02*
X165424999Y-125224991D01*
X164250007Y-124049999D02*
X163600008Y-123400000D01*
X169700000Y-142500000D02*
X165424999Y-138224999D01*
X171000000Y-142500000D02*
X169700000Y-142500000D01*
X164249999Y-126049999D02*
X163600000Y-125400000D01*
X170000000Y-145000000D02*
X164600000Y-139600000D01*
X173460000Y-143000000D02*
X171460000Y-145000000D01*
X171460000Y-145000000D02*
X170000000Y-145000000D01*
X164600000Y-139600000D02*
X164600000Y-126400000D01*
X164600000Y-126400000D02*
X164249999Y-126049999D01*
X181500000Y-100000000D02*
X180500000Y-100000000D01*
X183000000Y-101500000D02*
X181500000Y-100000000D01*
X183000000Y-114000000D02*
X183000000Y-101500000D01*
X180000000Y-117000000D02*
X183000000Y-114000000D01*
X180000000Y-118500000D02*
X180000000Y-117000000D01*
X180500000Y-119000000D02*
X180000000Y-118500000D01*
X181500000Y-97500000D02*
X180500000Y-97500000D01*
X184000000Y-100000000D02*
X181500000Y-97500000D01*
X184000000Y-115000000D02*
X184000000Y-100000000D01*
X181500000Y-117500000D02*
X184000000Y-115000000D01*
D22*
X176080000Y-144420000D02*
X176080000Y-142500000D01*
X174250000Y-146250000D02*
X176080000Y-144420000D01*
X169500000Y-146250000D02*
X174250000Y-146250000D01*
X163500000Y-140250000D02*
X169500000Y-146250000D01*
X163500000Y-128500000D02*
X163500000Y-140250000D01*
X162000000Y-127000000D02*
X163500000Y-128500000D01*
X162000000Y-108500000D02*
X162000000Y-127000000D01*
X165000000Y-105500000D02*
X162000000Y-108500000D01*
X176000000Y-142580000D02*
X176080000Y-142500000D01*
D20*
X153420000Y-98920000D02*
X151500000Y-98920000D01*
X155500000Y-101000000D02*
X153420000Y-98920000D01*
X149500000Y-114500000D02*
X149500000Y-113500000D01*
X149500000Y-113500000D02*
X148000000Y-112000000D01*
X148000000Y-112000000D02*
X148000000Y-111000000D01*
X149500000Y-121000000D02*
X149500000Y-114500000D01*
X152000000Y-123000000D02*
X149500000Y-121000000D01*
X152000000Y-124000000D02*
X152000000Y-123000000D01*
X152000000Y-125000000D02*
X152000000Y-124000000D01*
X152000000Y-125500000D02*
X152000000Y-125000000D01*
D22*
X166500000Y-137000000D02*
X168000000Y-135000000D01*
X168000000Y-135000000D02*
X168000000Y-134000000D01*
X168000000Y-131500000D02*
X168000000Y-134000000D01*
X168000000Y-134000000D02*
X168000000Y-135000000D01*
X170000000Y-129500000D02*
X168000000Y-131500000D01*
X177500000Y-129500000D02*
X170000000Y-129500000D01*
X180500000Y-126500000D02*
X177500000Y-129500000D01*
X178500000Y-131500000D02*
X180500000Y-131500000D01*
X177500000Y-130500000D02*
X178500000Y-131500000D01*
X173500000Y-130500000D02*
X177500000Y-130500000D01*
X170000000Y-130500000D02*
X173500000Y-130500000D01*
X169000000Y-131500000D02*
X170000000Y-130500000D01*
X169000000Y-136500000D02*
X169000000Y-131500000D01*
X168500000Y-137000000D02*
X169000000Y-136500000D01*
X170000000Y-136500000D02*
X170500000Y-137000000D01*
X170000000Y-132500000D02*
X170000000Y-136500000D01*
X171000000Y-131500000D02*
X170000000Y-132500000D01*
X176500000Y-131500000D02*
X171000000Y-131500000D01*
X177500000Y-132500000D02*
X176500000Y-131500000D01*
X177500000Y-134500000D02*
X177500000Y-132500000D01*
X178500000Y-135500000D02*
X177500000Y-134500000D01*
X179500000Y-135500000D02*
X178500000Y-135500000D01*
X180500000Y-136500000D02*
X179500000Y-135500000D01*
X180000000Y-141500000D02*
X180500000Y-141500000D01*
X179000000Y-140500000D02*
X180000000Y-141500000D01*
X179000000Y-137500000D02*
X179000000Y-140500000D01*
X176500000Y-135000000D02*
X179000000Y-137500000D01*
X176500000Y-133000000D02*
X176500000Y-135000000D01*
X176000000Y-132500000D02*
X176500000Y-133000000D01*
X171500000Y-132500000D02*
X176000000Y-132500000D01*
X171000000Y-133000000D02*
X171500000Y-132500000D01*
X171000000Y-135500000D02*
X171000000Y-133000000D01*
X172500000Y-137000000D02*
X171000000Y-135500000D01*
D23*
G36*
X196873000Y-147873000D02*
X175843224Y-147873000D01*
X178608112Y-145108112D01*
X178794537Y-144829107D01*
X178860000Y-144500000D01*
X178860000Y-141540868D01*
X179314176Y-141995044D01*
X179409995Y-142226943D01*
X179771155Y-142588735D01*
X180243276Y-142784777D01*
X180754481Y-142785223D01*
X181226943Y-142590005D01*
X181588735Y-142228845D01*
X181784777Y-141756724D01*
X181785223Y-141245519D01*
X181590005Y-140773057D01*
X181228845Y-140411265D01*
X180756724Y-140215223D01*
X180245519Y-140214777D01*
X179997942Y-140317074D01*
X179835000Y-140154132D01*
X179835000Y-137615246D01*
X180243276Y-137784777D01*
X180754481Y-137785223D01*
X181226943Y-137590005D01*
X181588735Y-137228845D01*
X181784777Y-136756724D01*
X181785223Y-136245519D01*
X181590005Y-135773057D01*
X181228845Y-135411265D01*
X180756724Y-135215223D01*
X180395776Y-135214908D01*
X180090434Y-134909566D01*
X179955702Y-134819541D01*
X179819541Y-134728561D01*
X179500000Y-134665000D01*
X178845868Y-134665000D01*
X178335000Y-134154132D01*
X178335000Y-132500000D01*
X178294030Y-132294030D01*
X178500000Y-132335000D01*
X179517863Y-132335000D01*
X179771155Y-132588735D01*
X180243276Y-132784777D01*
X180754481Y-132785223D01*
X181226943Y-132590005D01*
X181588735Y-132228845D01*
X181784777Y-131756724D01*
X181785223Y-131245519D01*
X181590005Y-130773057D01*
X181228845Y-130411265D01*
X180756724Y-130215223D01*
X180245519Y-130214777D01*
X179773057Y-130409995D01*
X179517606Y-130665000D01*
X178845868Y-130665000D01*
X178180868Y-130000000D01*
X179148868Y-129032000D01*
X193811907Y-129032000D01*
X193924946Y-129600285D01*
X194246853Y-130082054D01*
X194576026Y-130302000D01*
X194246853Y-130521946D01*
X193924946Y-131003715D01*
X193811907Y-131572000D01*
X193924946Y-132140285D01*
X194246853Y-132622054D01*
X194576026Y-132842000D01*
X194246853Y-133061946D01*
X193924946Y-133543715D01*
X193811907Y-134112000D01*
X193924946Y-134680285D01*
X194246853Y-135162054D01*
X194576026Y-135382000D01*
X194246853Y-135601946D01*
X193924946Y-136083715D01*
X193811907Y-136652000D01*
X193924946Y-137220285D01*
X194246853Y-137702054D01*
X194576026Y-137922000D01*
X194246853Y-138141946D01*
X193924946Y-138623715D01*
X193811907Y-139192000D01*
X193924946Y-139760285D01*
X194246853Y-140242054D01*
X194576026Y-140462000D01*
X194246853Y-140681946D01*
X193924946Y-141163715D01*
X193811907Y-141732000D01*
X193924946Y-142300285D01*
X194246853Y-142782054D01*
X194576026Y-143002000D01*
X194246853Y-143221946D01*
X193924946Y-143703715D01*
X193811907Y-144272000D01*
X193924946Y-144840285D01*
X194246853Y-145322054D01*
X194728622Y-145643961D01*
X195296907Y-145757000D01*
X195355093Y-145757000D01*
X195923378Y-145643961D01*
X196405147Y-145322054D01*
X196727054Y-144840285D01*
X196840093Y-144272000D01*
X196727054Y-143703715D01*
X196405147Y-143221946D01*
X196075974Y-143002000D01*
X196405147Y-142782054D01*
X196727054Y-142300285D01*
X196840093Y-141732000D01*
X196727054Y-141163715D01*
X196405147Y-140681946D01*
X196075974Y-140462000D01*
X196405147Y-140242054D01*
X196727054Y-139760285D01*
X196840093Y-139192000D01*
X196727054Y-138623715D01*
X196405147Y-138141946D01*
X196075974Y-137922000D01*
X196405147Y-137702054D01*
X196727054Y-137220285D01*
X196840093Y-136652000D01*
X196727054Y-136083715D01*
X196405147Y-135601946D01*
X196075974Y-135382000D01*
X196405147Y-135162054D01*
X196727054Y-134680285D01*
X196840093Y-134112000D01*
X196727054Y-133543715D01*
X196405147Y-133061946D01*
X196075974Y-132842000D01*
X196405147Y-132622054D01*
X196727054Y-132140285D01*
X196840093Y-131572000D01*
X196727054Y-131003715D01*
X196405147Y-130521946D01*
X196075974Y-130302000D01*
X196405147Y-130082054D01*
X196727054Y-129600285D01*
X196840093Y-129032000D01*
X196727054Y-128463715D01*
X196405147Y-127981946D01*
X196363548Y-127954150D01*
X196411317Y-127945162D01*
X196627441Y-127806090D01*
X196772431Y-127593890D01*
X196823440Y-127342000D01*
X196823440Y-125642000D01*
X196779162Y-125406683D01*
X196640090Y-125190559D01*
X196427890Y-125045569D01*
X196176000Y-124994560D01*
X194476000Y-124994560D01*
X194240683Y-125038838D01*
X194024559Y-125177910D01*
X193879569Y-125390110D01*
X193828560Y-125642000D01*
X193828560Y-127342000D01*
X193872838Y-127577317D01*
X194011910Y-127793441D01*
X194224110Y-127938431D01*
X194291541Y-127952086D01*
X194246853Y-127981946D01*
X193924946Y-128463715D01*
X193811907Y-129032000D01*
X179148868Y-129032000D01*
X180395958Y-127784910D01*
X180754481Y-127785223D01*
X181226943Y-127590005D01*
X181588735Y-127228845D01*
X181784777Y-126756724D01*
X181785223Y-126245519D01*
X181590005Y-125773057D01*
X181228845Y-125411265D01*
X180756724Y-125215223D01*
X180365986Y-125214882D01*
X182388716Y-123192152D01*
X182396838Y-123235317D01*
X182535910Y-123451441D01*
X182748110Y-123596431D01*
X183000000Y-123647440D01*
X185000000Y-123647440D01*
X185235317Y-123603162D01*
X185451441Y-123464090D01*
X185596431Y-123251890D01*
X185647440Y-123000000D01*
X185647440Y-122485750D01*
X186365000Y-122485750D01*
X186365000Y-123126310D01*
X186461673Y-123359699D01*
X186640302Y-123538327D01*
X186873691Y-123635000D01*
X187714250Y-123635000D01*
X187873000Y-123476250D01*
X187873000Y-122327000D01*
X188127000Y-122327000D01*
X188127000Y-123476250D01*
X188285750Y-123635000D01*
X189126309Y-123635000D01*
X189359698Y-123538327D01*
X189538327Y-123359699D01*
X189635000Y-123126310D01*
X189635000Y-122485750D01*
X189476250Y-122327000D01*
X188127000Y-122327000D01*
X187873000Y-122327000D01*
X186523750Y-122327000D01*
X186365000Y-122485750D01*
X185647440Y-122485750D01*
X185647440Y-121400000D01*
X185623674Y-121273690D01*
X186365000Y-121273690D01*
X186365000Y-121914250D01*
X186523750Y-122073000D01*
X187873000Y-122073000D01*
X187873000Y-120923750D01*
X188127000Y-120923750D01*
X188127000Y-122073000D01*
X189476250Y-122073000D01*
X189635000Y-121914250D01*
X189635000Y-121273690D01*
X189538327Y-121040301D01*
X189359698Y-120861673D01*
X189126309Y-120765000D01*
X188285750Y-120765000D01*
X188127000Y-120923750D01*
X187873000Y-120923750D01*
X187714250Y-120765000D01*
X186873691Y-120765000D01*
X186640302Y-120861673D01*
X186461673Y-121040301D01*
X186365000Y-121273690D01*
X185623674Y-121273690D01*
X185603162Y-121164683D01*
X185464090Y-120948559D01*
X185251890Y-120803569D01*
X185000000Y-120752560D01*
X183000000Y-120752560D01*
X182764683Y-120796838D01*
X182548559Y-120935910D01*
X182403569Y-121148110D01*
X182359648Y-121365000D01*
X182200000Y-121365000D01*
X181880459Y-121428561D01*
X181659427Y-121576250D01*
X181609566Y-121609566D01*
X178147440Y-125071692D01*
X178147440Y-123100000D01*
X178103162Y-122864683D01*
X177964090Y-122648559D01*
X177751890Y-122503569D01*
X177500000Y-122452560D01*
X175900000Y-122452560D01*
X175664683Y-122496838D01*
X175448559Y-122635910D01*
X175303569Y-122848110D01*
X175279898Y-122965000D01*
X175235000Y-122965000D01*
X175235000Y-120385750D01*
X175265000Y-120385750D01*
X175265000Y-121226309D01*
X175361673Y-121459698D01*
X175540301Y-121638327D01*
X175773690Y-121735000D01*
X176414250Y-121735000D01*
X176573000Y-121576250D01*
X176573000Y-120227000D01*
X176827000Y-120227000D01*
X176827000Y-121576250D01*
X176985750Y-121735000D01*
X177626310Y-121735000D01*
X177859699Y-121638327D01*
X178038327Y-121459698D01*
X178135000Y-121226309D01*
X178135000Y-120385750D01*
X177976250Y-120227000D01*
X176827000Y-120227000D01*
X176573000Y-120227000D01*
X175423750Y-120227000D01*
X175265000Y-120385750D01*
X175235000Y-120385750D01*
X175235000Y-118973691D01*
X175265000Y-118973691D01*
X175265000Y-119814250D01*
X175423750Y-119973000D01*
X176573000Y-119973000D01*
X176573000Y-118623750D01*
X176827000Y-118623750D01*
X176827000Y-119973000D01*
X177976250Y-119973000D01*
X178135000Y-119814250D01*
X178135000Y-118973691D01*
X178038327Y-118740302D01*
X177859699Y-118561673D01*
X177626310Y-118465000D01*
X176985750Y-118465000D01*
X176827000Y-118623750D01*
X176573000Y-118623750D01*
X176414250Y-118465000D01*
X175773690Y-118465000D01*
X175540301Y-118561673D01*
X175361673Y-118740302D01*
X175265000Y-118973691D01*
X175235000Y-118973691D01*
X175235000Y-117000000D01*
X179140000Y-117000000D01*
X179140000Y-118500000D01*
X179205464Y-118829108D01*
X179215135Y-118843582D01*
X179214777Y-119254481D01*
X179409995Y-119726943D01*
X179771155Y-120088735D01*
X180243276Y-120284777D01*
X180754481Y-120285223D01*
X181226943Y-120090005D01*
X181588735Y-119728845D01*
X181784777Y-119256724D01*
X181785199Y-118772530D01*
X182226943Y-118590005D01*
X182588735Y-118228845D01*
X182784777Y-117756724D01*
X182785061Y-117431163D01*
X184608112Y-115608112D01*
X184684575Y-115493676D01*
X184794536Y-115329108D01*
X184860000Y-115000000D01*
X184860000Y-100076000D01*
X193811907Y-100076000D01*
X193924946Y-100644285D01*
X194246853Y-101126054D01*
X194576026Y-101346000D01*
X194246853Y-101565946D01*
X193924946Y-102047715D01*
X193811907Y-102616000D01*
X193924946Y-103184285D01*
X194246853Y-103666054D01*
X194576026Y-103886000D01*
X194246853Y-104105946D01*
X193924946Y-104587715D01*
X193811907Y-105156000D01*
X193924946Y-105724285D01*
X194246853Y-106206054D01*
X194576026Y-106426000D01*
X194246853Y-106645946D01*
X193924946Y-107127715D01*
X193811907Y-107696000D01*
X193924946Y-108264285D01*
X194246853Y-108746054D01*
X194576026Y-108966000D01*
X194246853Y-109185946D01*
X193924946Y-109667715D01*
X193811907Y-110236000D01*
X193924946Y-110804285D01*
X194246853Y-111286054D01*
X194576026Y-111506000D01*
X194246853Y-111725946D01*
X193924946Y-112207715D01*
X193811907Y-112776000D01*
X193924946Y-113344285D01*
X194246853Y-113826054D01*
X194576026Y-114046000D01*
X194246853Y-114265946D01*
X193924946Y-114747715D01*
X193811907Y-115316000D01*
X193924946Y-115884285D01*
X194246853Y-116366054D01*
X194728622Y-116687961D01*
X195296907Y-116801000D01*
X195355093Y-116801000D01*
X195923378Y-116687961D01*
X196405147Y-116366054D01*
X196727054Y-115884285D01*
X196840093Y-115316000D01*
X196727054Y-114747715D01*
X196405147Y-114265946D01*
X196075974Y-114046000D01*
X196405147Y-113826054D01*
X196727054Y-113344285D01*
X196840093Y-112776000D01*
X196727054Y-112207715D01*
X196405147Y-111725946D01*
X196075974Y-111506000D01*
X196405147Y-111286054D01*
X196727054Y-110804285D01*
X196840093Y-110236000D01*
X196727054Y-109667715D01*
X196405147Y-109185946D01*
X196075974Y-108966000D01*
X196405147Y-108746054D01*
X196727054Y-108264285D01*
X196840093Y-107696000D01*
X196727054Y-107127715D01*
X196405147Y-106645946D01*
X196075974Y-106426000D01*
X196405147Y-106206054D01*
X196727054Y-105724285D01*
X196840093Y-105156000D01*
X196727054Y-104587715D01*
X196405147Y-104105946D01*
X196075974Y-103886000D01*
X196405147Y-103666054D01*
X196727054Y-103184285D01*
X196840093Y-102616000D01*
X196727054Y-102047715D01*
X196405147Y-101565946D01*
X196075974Y-101346000D01*
X196405147Y-101126054D01*
X196727054Y-100644285D01*
X196840093Y-100076000D01*
X196727054Y-99507715D01*
X196405147Y-99025946D01*
X196363548Y-98998150D01*
X196411317Y-98989162D01*
X196627441Y-98850090D01*
X196772431Y-98637890D01*
X196823440Y-98386000D01*
X196823440Y-96686000D01*
X196779162Y-96450683D01*
X196640090Y-96234559D01*
X196427890Y-96089569D01*
X196176000Y-96038560D01*
X194476000Y-96038560D01*
X194240683Y-96082838D01*
X194024559Y-96221910D01*
X193879569Y-96434110D01*
X193828560Y-96686000D01*
X193828560Y-98386000D01*
X193872838Y-98621317D01*
X194011910Y-98837441D01*
X194224110Y-98982431D01*
X194291541Y-98996086D01*
X194246853Y-99025946D01*
X193924946Y-99507715D01*
X193811907Y-100076000D01*
X184860000Y-100076000D01*
X184860000Y-100000000D01*
X184794536Y-99670892D01*
X184608112Y-99391888D01*
X182108112Y-96891888D01*
X181930268Y-96773057D01*
X181829108Y-96705464D01*
X181500000Y-96640000D01*
X181457180Y-96640000D01*
X181228845Y-96411265D01*
X180756724Y-96215223D01*
X180245519Y-96214777D01*
X179773057Y-96409995D01*
X179411265Y-96771155D01*
X179215223Y-97243276D01*
X179214777Y-97754481D01*
X179409995Y-98226943D01*
X179771155Y-98588735D01*
X180159898Y-98750155D01*
X179773057Y-98909995D01*
X179411265Y-99271155D01*
X179215223Y-99743276D01*
X179214777Y-100254481D01*
X179409995Y-100726943D01*
X179771155Y-101088735D01*
X180243276Y-101284777D01*
X180754481Y-101285223D01*
X181226943Y-101090005D01*
X181300426Y-101016650D01*
X182140000Y-101856224D01*
X182140000Y-113643776D01*
X179391888Y-116391888D01*
X179205464Y-116670892D01*
X179140000Y-117000000D01*
X175235000Y-117000000D01*
X175235000Y-113721659D01*
X175336277Y-113702602D01*
X175552401Y-113563530D01*
X175697391Y-113351330D01*
X175748400Y-113099440D01*
X175748400Y-111900560D01*
X175704122Y-111665243D01*
X175565050Y-111449119D01*
X175352850Y-111304129D01*
X175100960Y-111253120D01*
X173500760Y-111253120D01*
X173265443Y-111297398D01*
X173049319Y-111436470D01*
X172904329Y-111648670D01*
X172853320Y-111900560D01*
X172853320Y-113099440D01*
X172897598Y-113334757D01*
X172965000Y-113439503D01*
X172965000Y-115748776D01*
X171559140Y-114342916D01*
X171559140Y-113735609D01*
X171734557Y-113702602D01*
X171950681Y-113563530D01*
X172095671Y-113351330D01*
X172146680Y-113099440D01*
X172146680Y-111900560D01*
X172102402Y-111665243D01*
X171963330Y-111449119D01*
X171751130Y-111304129D01*
X171499240Y-111253120D01*
X171360000Y-111253120D01*
X171360000Y-110947440D01*
X171500000Y-110947440D01*
X171735317Y-110903162D01*
X171951441Y-110764090D01*
X172096431Y-110551890D01*
X172147440Y-110300000D01*
X172147440Y-109785750D01*
X172865000Y-109785750D01*
X172865000Y-110426310D01*
X172961673Y-110659699D01*
X173140302Y-110838327D01*
X173373691Y-110935000D01*
X174214250Y-110935000D01*
X174373000Y-110776250D01*
X174373000Y-109627000D01*
X174627000Y-109627000D01*
X174627000Y-110776250D01*
X174785750Y-110935000D01*
X175626309Y-110935000D01*
X175859698Y-110838327D01*
X176038327Y-110659699D01*
X176135000Y-110426310D01*
X176135000Y-109785750D01*
X175976250Y-109627000D01*
X174627000Y-109627000D01*
X174373000Y-109627000D01*
X173023750Y-109627000D01*
X172865000Y-109785750D01*
X172147440Y-109785750D01*
X172147440Y-108700000D01*
X172123674Y-108573690D01*
X172865000Y-108573690D01*
X172865000Y-109214250D01*
X173023750Y-109373000D01*
X174373000Y-109373000D01*
X174373000Y-108223750D01*
X174627000Y-108223750D01*
X174627000Y-109373000D01*
X175976250Y-109373000D01*
X176135000Y-109214250D01*
X176135000Y-108573690D01*
X176038327Y-108340301D01*
X175859698Y-108161673D01*
X175626309Y-108065000D01*
X174785750Y-108065000D01*
X174627000Y-108223750D01*
X174373000Y-108223750D01*
X174214250Y-108065000D01*
X173373691Y-108065000D01*
X173140302Y-108161673D01*
X172961673Y-108340301D01*
X172865000Y-108573690D01*
X172123674Y-108573690D01*
X172103162Y-108464683D01*
X171964090Y-108248559D01*
X171751890Y-108103569D01*
X171500000Y-108052560D01*
X169500000Y-108052560D01*
X169264683Y-108096838D01*
X169048559Y-108235910D01*
X168903569Y-108448110D01*
X168852560Y-108700000D01*
X168852560Y-110300000D01*
X168896838Y-110535317D01*
X169035910Y-110751441D01*
X169248110Y-110896431D01*
X169500000Y-110947440D01*
X169640000Y-110947440D01*
X169640000Y-111312663D01*
X169447599Y-111436470D01*
X169302609Y-111648670D01*
X169251600Y-111900560D01*
X169251600Y-113099440D01*
X169295878Y-113334757D01*
X169434950Y-113550881D01*
X169647150Y-113695871D01*
X169839140Y-113734750D01*
X169839140Y-114699140D01*
X169904604Y-115028248D01*
X169979274Y-115140000D01*
X170091028Y-115307252D01*
X170923776Y-116140000D01*
X167856224Y-116140000D01*
X167360000Y-115643776D01*
X167360000Y-107856224D01*
X168356224Y-106860000D01*
X168863850Y-106860000D01*
X168896838Y-107035317D01*
X169035910Y-107251441D01*
X169248110Y-107396431D01*
X169500000Y-107447440D01*
X171500000Y-107447440D01*
X171735317Y-107403162D01*
X171951441Y-107264090D01*
X172096431Y-107051890D01*
X172147440Y-106800000D01*
X172147440Y-106285750D01*
X172865000Y-106285750D01*
X172865000Y-106926310D01*
X172961673Y-107159699D01*
X173140302Y-107338327D01*
X173373691Y-107435000D01*
X174214250Y-107435000D01*
X174373000Y-107276250D01*
X174373000Y-106127000D01*
X174627000Y-106127000D01*
X174627000Y-107276250D01*
X174785750Y-107435000D01*
X175626309Y-107435000D01*
X175859698Y-107338327D01*
X176038327Y-107159699D01*
X176135000Y-106926310D01*
X176135000Y-106285750D01*
X175976250Y-106127000D01*
X174627000Y-106127000D01*
X174373000Y-106127000D01*
X173023750Y-106127000D01*
X172865000Y-106285750D01*
X172147440Y-106285750D01*
X172147440Y-105200000D01*
X172123674Y-105073690D01*
X172865000Y-105073690D01*
X172865000Y-105714250D01*
X173023750Y-105873000D01*
X174373000Y-105873000D01*
X174373000Y-104723750D01*
X174627000Y-104723750D01*
X174627000Y-105873000D01*
X175976250Y-105873000D01*
X176135000Y-105714250D01*
X176135000Y-105073690D01*
X176038327Y-104840301D01*
X175859698Y-104661673D01*
X175626309Y-104565000D01*
X174785750Y-104565000D01*
X174627000Y-104723750D01*
X174373000Y-104723750D01*
X174214250Y-104565000D01*
X173373691Y-104565000D01*
X173140302Y-104661673D01*
X172961673Y-104840301D01*
X172865000Y-105073690D01*
X172123674Y-105073690D01*
X172103162Y-104964683D01*
X171964090Y-104748559D01*
X171751890Y-104603569D01*
X171500000Y-104552560D01*
X169500000Y-104552560D01*
X169264683Y-104596838D01*
X169048559Y-104735910D01*
X168903569Y-104948110D01*
X168864710Y-105140000D01*
X168000000Y-105140000D01*
X167670892Y-105205464D01*
X167391888Y-105391888D01*
X165891888Y-106891888D01*
X165705464Y-107170892D01*
X165640000Y-107500000D01*
X165640000Y-116000000D01*
X165705464Y-116329108D01*
X165891888Y-116608112D01*
X166891888Y-117608112D01*
X167170893Y-117794537D01*
X167428481Y-117845775D01*
X167273057Y-117909995D01*
X166911265Y-118271155D01*
X166715223Y-118743276D01*
X166714777Y-119254481D01*
X166909995Y-119726943D01*
X167271155Y-120088735D01*
X167743276Y-120284777D01*
X168254481Y-120285223D01*
X168726943Y-120090005D01*
X168957350Y-119860000D01*
X172500000Y-119860000D01*
X172829108Y-119794536D01*
X172965000Y-119703736D01*
X172965000Y-123717951D01*
X172661265Y-124021155D01*
X172465223Y-124493276D01*
X172464777Y-125004481D01*
X172659995Y-125476943D01*
X173021155Y-125838735D01*
X173493276Y-126034777D01*
X174004481Y-126035223D01*
X174476943Y-125840005D01*
X174838735Y-125478845D01*
X174939988Y-125235000D01*
X175277962Y-125235000D01*
X175296838Y-125335317D01*
X175435910Y-125551441D01*
X175648110Y-125696431D01*
X175900000Y-125747440D01*
X177471692Y-125747440D01*
X177254132Y-125965000D01*
X174400000Y-125965000D01*
X174080459Y-126028561D01*
X173950898Y-126115131D01*
X173545519Y-126114777D01*
X173073057Y-126309995D01*
X172711265Y-126671155D01*
X172515223Y-127143276D01*
X172514777Y-127654481D01*
X172709995Y-128126943D01*
X173071155Y-128488735D01*
X173495648Y-128665000D01*
X170000000Y-128665000D01*
X169680459Y-128728561D01*
X169409566Y-128909566D01*
X167409566Y-130909566D01*
X167228561Y-131180459D01*
X167165000Y-131500000D01*
X167165000Y-134721667D01*
X166420053Y-135714929D01*
X166284999Y-135714811D01*
X166284999Y-125224996D01*
X166285000Y-125224991D01*
X166219536Y-124895884D01*
X166033111Y-124616879D01*
X164884949Y-123468717D01*
X164885231Y-123145519D01*
X164690013Y-122673057D01*
X164328853Y-122311265D01*
X163856732Y-122115223D01*
X163345527Y-122114777D01*
X162873065Y-122309995D01*
X162835000Y-122347994D01*
X162835000Y-108845868D01*
X164895958Y-106784910D01*
X165254481Y-106785223D01*
X165726943Y-106590005D01*
X166088735Y-106228845D01*
X166284777Y-105756724D01*
X166285223Y-105245519D01*
X166090005Y-104773057D01*
X165728845Y-104411265D01*
X165256724Y-104215223D01*
X164745519Y-104214777D01*
X164273057Y-104409995D01*
X163911265Y-104771155D01*
X163715223Y-105243276D01*
X163714908Y-105604224D01*
X161635000Y-107684132D01*
X161635000Y-101177239D01*
X161656120Y-101156119D01*
X162010543Y-100625688D01*
X162135001Y-100000000D01*
X162010543Y-99374312D01*
X161656120Y-98843880D01*
X161125688Y-98489457D01*
X160500000Y-98364999D01*
X159874312Y-98489457D01*
X159343881Y-98843880D01*
X158843880Y-99343880D01*
X158489457Y-99874312D01*
X158364999Y-100500000D01*
X158365000Y-100500005D01*
X158365000Y-106637875D01*
X158250000Y-106615000D01*
X147289018Y-106615000D01*
X147214090Y-106498559D01*
X147001890Y-106353569D01*
X146750000Y-106302560D01*
X144750000Y-106302560D01*
X144514683Y-106346838D01*
X144298559Y-106485910D01*
X144153569Y-106698110D01*
X144102560Y-106950000D01*
X144102560Y-108550000D01*
X144146838Y-108785317D01*
X144285910Y-109001441D01*
X144468769Y-109126383D01*
X144298559Y-109235910D01*
X144153569Y-109448110D01*
X144102560Y-109700000D01*
X144102560Y-111300000D01*
X144146838Y-111535317D01*
X144279793Y-111741935D01*
X143873057Y-111909995D01*
X143511265Y-112271155D01*
X143315223Y-112743276D01*
X143314777Y-113254481D01*
X143509995Y-113726943D01*
X143871155Y-114088735D01*
X144343276Y-114284777D01*
X144854481Y-114285223D01*
X145326943Y-114090005D01*
X145339569Y-114077401D01*
X145484346Y-114048603D01*
X145852566Y-113802566D01*
X146552566Y-113102567D01*
X146798603Y-112734346D01*
X146805264Y-112700860D01*
X146885000Y-112300000D01*
X146885000Y-111922038D01*
X146985317Y-111903162D01*
X147046564Y-111863751D01*
X147140000Y-111957350D01*
X147140000Y-112000000D01*
X147205464Y-112329108D01*
X147319650Y-112500000D01*
X147391888Y-112608112D01*
X148640000Y-113856224D01*
X148640000Y-121000000D01*
X148649371Y-121047112D01*
X148645260Y-121094971D01*
X148681846Y-121210373D01*
X148705464Y-121329108D01*
X148732151Y-121369047D01*
X148746667Y-121414836D01*
X148824628Y-121507450D01*
X148891888Y-121608112D01*
X148931828Y-121634799D01*
X148962762Y-121671547D01*
X151140000Y-123413337D01*
X151140000Y-124542820D01*
X150911265Y-124771155D01*
X150715223Y-125243276D01*
X150714777Y-125754481D01*
X150909995Y-126226943D01*
X151271155Y-126588735D01*
X151743276Y-126784777D01*
X152254481Y-126785223D01*
X152726943Y-126590005D01*
X152749723Y-126567265D01*
X152771155Y-126588735D01*
X153243276Y-126784777D01*
X153754481Y-126785223D01*
X154226943Y-126590005D01*
X154249723Y-126567265D01*
X154271155Y-126588735D01*
X154743276Y-126784777D01*
X155254481Y-126785223D01*
X155726943Y-126590005D01*
X156088735Y-126228845D01*
X156284777Y-125756724D01*
X156285223Y-125245519D01*
X156090005Y-124773057D01*
X155860000Y-124542650D01*
X155860000Y-124500005D01*
X155860001Y-124500000D01*
X155794537Y-124170893D01*
X155608112Y-123891888D01*
X154860000Y-123143776D01*
X154860000Y-122000000D01*
X154794536Y-121670892D01*
X154608112Y-121391888D01*
X153360000Y-120143776D01*
X153360000Y-113500000D01*
X153294536Y-113170892D01*
X153108112Y-112891888D01*
X152860000Y-112643776D01*
X152860000Y-111957180D01*
X153088735Y-111728845D01*
X153284777Y-111256724D01*
X153285223Y-110745519D01*
X153090005Y-110273057D01*
X152728845Y-109911265D01*
X152256724Y-109715223D01*
X151745519Y-109714777D01*
X151273057Y-109909995D01*
X150999840Y-110182734D01*
X150728845Y-109911265D01*
X150256724Y-109715223D01*
X149745519Y-109714777D01*
X149273057Y-109909995D01*
X148999840Y-110182734D01*
X148728845Y-109911265D01*
X148256724Y-109715223D01*
X147745519Y-109714777D01*
X147397440Y-109858601D01*
X147397440Y-109700000D01*
X147353162Y-109464683D01*
X147214090Y-109248559D01*
X147031231Y-109123617D01*
X147201441Y-109014090D01*
X147289644Y-108885000D01*
X157779868Y-108885000D01*
X158365000Y-109470132D01*
X158365000Y-142000000D01*
X158489457Y-142625687D01*
X158843880Y-143156120D01*
X159374313Y-143510543D01*
X160000000Y-143635000D01*
X160358548Y-143563680D01*
X162960847Y-146165979D01*
X163109995Y-146526943D01*
X163471155Y-146888735D01*
X163943276Y-147084777D01*
X164454481Y-147085223D01*
X164926943Y-146890005D01*
X165288735Y-146528845D01*
X165484777Y-146056724D01*
X165485087Y-145701311D01*
X167656776Y-147873000D01*
X140527000Y-147873000D01*
X140527000Y-145454000D01*
X141504560Y-145454000D01*
X141504560Y-147154000D01*
X141548838Y-147389317D01*
X141687910Y-147605441D01*
X141900110Y-147750431D01*
X142152000Y-147801440D01*
X143852000Y-147801440D01*
X144087317Y-147757162D01*
X144303441Y-147618090D01*
X144448431Y-147405890D01*
X144462086Y-147338459D01*
X144491946Y-147383147D01*
X144973715Y-147705054D01*
X145542000Y-147818093D01*
X146110285Y-147705054D01*
X146592054Y-147383147D01*
X146812000Y-147053974D01*
X147031946Y-147383147D01*
X147513715Y-147705054D01*
X148082000Y-147818093D01*
X148650285Y-147705054D01*
X149132054Y-147383147D01*
X149352000Y-147053974D01*
X149571946Y-147383147D01*
X150053715Y-147705054D01*
X150622000Y-147818093D01*
X151190285Y-147705054D01*
X151672054Y-147383147D01*
X151892000Y-147053974D01*
X152111946Y-147383147D01*
X152593715Y-147705054D01*
X153162000Y-147818093D01*
X153730285Y-147705054D01*
X154212054Y-147383147D01*
X154432000Y-147053974D01*
X154651946Y-147383147D01*
X155133715Y-147705054D01*
X155702000Y-147818093D01*
X156270285Y-147705054D01*
X156752054Y-147383147D01*
X156972000Y-147053974D01*
X157191946Y-147383147D01*
X157673715Y-147705054D01*
X158242000Y-147818093D01*
X158810285Y-147705054D01*
X159292054Y-147383147D01*
X159512000Y-147053974D01*
X159731946Y-147383147D01*
X160213715Y-147705054D01*
X160782000Y-147818093D01*
X161350285Y-147705054D01*
X161832054Y-147383147D01*
X162153961Y-146901378D01*
X162267000Y-146333093D01*
X162267000Y-146274907D01*
X162153961Y-145706622D01*
X161832054Y-145224853D01*
X161350285Y-144902946D01*
X160782000Y-144789907D01*
X160213715Y-144902946D01*
X159731946Y-145224853D01*
X159512000Y-145554026D01*
X159292054Y-145224853D01*
X158810285Y-144902946D01*
X158242000Y-144789907D01*
X157673715Y-144902946D01*
X157191946Y-145224853D01*
X156972000Y-145554026D01*
X156752054Y-145224853D01*
X156270285Y-144902946D01*
X155702000Y-144789907D01*
X155133715Y-144902946D01*
X154651946Y-145224853D01*
X154432000Y-145554026D01*
X154212054Y-145224853D01*
X153730285Y-144902946D01*
X153162000Y-144789907D01*
X152593715Y-144902946D01*
X152111946Y-145224853D01*
X151892000Y-145554026D01*
X151672054Y-145224853D01*
X151190285Y-144902946D01*
X150622000Y-144789907D01*
X150053715Y-144902946D01*
X149571946Y-145224853D01*
X149352000Y-145554026D01*
X149132054Y-145224853D01*
X148650285Y-144902946D01*
X148082000Y-144789907D01*
X147513715Y-144902946D01*
X147031946Y-145224853D01*
X146812000Y-145554026D01*
X146592054Y-145224853D01*
X146110285Y-144902946D01*
X145542000Y-144789907D01*
X144973715Y-144902946D01*
X144491946Y-145224853D01*
X144464150Y-145266452D01*
X144455162Y-145218683D01*
X144316090Y-145002559D01*
X144103890Y-144857569D01*
X143852000Y-144806560D01*
X142152000Y-144806560D01*
X141916683Y-144850838D01*
X141700559Y-144989910D01*
X141555569Y-145202110D01*
X141504560Y-145454000D01*
X140527000Y-145454000D01*
X140527000Y-122674285D01*
X145114760Y-122674285D01*
X145325169Y-123183515D01*
X145714436Y-123573461D01*
X146223298Y-123784759D01*
X146774285Y-123785240D01*
X147283515Y-123574831D01*
X147673461Y-123185564D01*
X147884759Y-122676702D01*
X147885240Y-122125715D01*
X147674831Y-121616485D01*
X147285564Y-121226539D01*
X146776702Y-121015241D01*
X146225715Y-121014760D01*
X145716485Y-121225169D01*
X145326539Y-121614436D01*
X145115241Y-122123298D01*
X145114760Y-122674285D01*
X140527000Y-122674285D01*
X140527000Y-117774285D01*
X145114760Y-117774285D01*
X145325169Y-118283515D01*
X145714436Y-118673461D01*
X146223298Y-118884759D01*
X146774285Y-118885240D01*
X147283515Y-118674831D01*
X147673461Y-118285564D01*
X147884759Y-117776702D01*
X147885240Y-117225715D01*
X147674831Y-116716485D01*
X147285564Y-116326539D01*
X146776702Y-116115241D01*
X146225715Y-116114760D01*
X145716485Y-116325169D01*
X145326539Y-116714436D01*
X145115241Y-117223298D01*
X145114760Y-117774285D01*
X140527000Y-117774285D01*
X140527000Y-111894949D01*
X140623691Y-111935000D01*
X141464250Y-111935000D01*
X141623000Y-111776250D01*
X141623000Y-110627000D01*
X141877000Y-110627000D01*
X141877000Y-111776250D01*
X142035750Y-111935000D01*
X142876309Y-111935000D01*
X143109698Y-111838327D01*
X143288327Y-111659699D01*
X143385000Y-111426310D01*
X143385000Y-110785750D01*
X143226250Y-110627000D01*
X141877000Y-110627000D01*
X141623000Y-110627000D01*
X141603000Y-110627000D01*
X141603000Y-110373000D01*
X141623000Y-110373000D01*
X141623000Y-109223750D01*
X141524250Y-109125000D01*
X141623000Y-109026250D01*
X141623000Y-107877000D01*
X141877000Y-107877000D01*
X141877000Y-109026250D01*
X141975750Y-109125000D01*
X141877000Y-109223750D01*
X141877000Y-110373000D01*
X143226250Y-110373000D01*
X143385000Y-110214250D01*
X143385000Y-109573690D01*
X143288327Y-109340301D01*
X143109698Y-109161673D01*
X143021162Y-109125000D01*
X143109698Y-109088327D01*
X143288327Y-108909699D01*
X143385000Y-108676310D01*
X143385000Y-108035750D01*
X143226250Y-107877000D01*
X141877000Y-107877000D01*
X141623000Y-107877000D01*
X141603000Y-107877000D01*
X141603000Y-107623000D01*
X141623000Y-107623000D01*
X141623000Y-106473750D01*
X141877000Y-106473750D01*
X141877000Y-107623000D01*
X143226250Y-107623000D01*
X143385000Y-107464250D01*
X143385000Y-106823690D01*
X143288327Y-106590301D01*
X143109698Y-106411673D01*
X142876309Y-106315000D01*
X142035750Y-106315000D01*
X141877000Y-106473750D01*
X141623000Y-106473750D01*
X141464250Y-106315000D01*
X140623691Y-106315000D01*
X140527000Y-106355051D01*
X140527000Y-104285750D01*
X150015000Y-104285750D01*
X150015000Y-104976310D01*
X150111673Y-105209699D01*
X150290302Y-105388327D01*
X150523691Y-105485000D01*
X151214250Y-105485000D01*
X151373000Y-105326250D01*
X151373000Y-104127000D01*
X151627000Y-104127000D01*
X151627000Y-105326250D01*
X151785750Y-105485000D01*
X152476309Y-105485000D01*
X152709698Y-105388327D01*
X152888327Y-105209699D01*
X152985000Y-104976310D01*
X152985000Y-104285750D01*
X152826250Y-104127000D01*
X151627000Y-104127000D01*
X151373000Y-104127000D01*
X150173750Y-104127000D01*
X150015000Y-104285750D01*
X140527000Y-104285750D01*
X140527000Y-96380000D01*
X149985907Y-96380000D01*
X150098946Y-96948285D01*
X150420853Y-97430054D01*
X150750026Y-97650000D01*
X150420853Y-97869946D01*
X150098946Y-98351715D01*
X149985907Y-98920000D01*
X150098946Y-99488285D01*
X150420853Y-99970054D01*
X150750026Y-100190000D01*
X150420853Y-100409946D01*
X150098946Y-100891715D01*
X149985907Y-101460000D01*
X150098946Y-102028285D01*
X150420853Y-102510054D01*
X150464777Y-102539403D01*
X150290302Y-102611673D01*
X150111673Y-102790301D01*
X150015000Y-103023690D01*
X150015000Y-103714250D01*
X150173750Y-103873000D01*
X151373000Y-103873000D01*
X151373000Y-103853000D01*
X151627000Y-103853000D01*
X151627000Y-103873000D01*
X152826250Y-103873000D01*
X152985000Y-103714250D01*
X152985000Y-103023690D01*
X152888327Y-102790301D01*
X152709698Y-102611673D01*
X152535223Y-102539403D01*
X152579147Y-102510054D01*
X152901054Y-102028285D01*
X153014093Y-101460000D01*
X152901054Y-100891715D01*
X152579147Y-100409946D01*
X152249974Y-100190000D01*
X152579147Y-99970054D01*
X152706137Y-99780000D01*
X153063776Y-99780000D01*
X154215059Y-100931283D01*
X154214777Y-101254481D01*
X154409995Y-101726943D01*
X154771155Y-102088735D01*
X155243276Y-102284777D01*
X155754481Y-102285223D01*
X156226943Y-102090005D01*
X156588735Y-101728845D01*
X156784777Y-101256724D01*
X156785223Y-100745519D01*
X156590005Y-100273057D01*
X156228845Y-99911265D01*
X155756724Y-99715223D01*
X155431163Y-99714939D01*
X154028112Y-98311888D01*
X153900982Y-98226943D01*
X153749108Y-98125464D01*
X153420000Y-98060000D01*
X152706137Y-98060000D01*
X152579147Y-97869946D01*
X152249974Y-97650000D01*
X152579147Y-97430054D01*
X152901054Y-96948285D01*
X153014093Y-96380000D01*
X152901054Y-95811715D01*
X152579147Y-95329946D01*
X152097378Y-95008039D01*
X151529093Y-94895000D01*
X151470907Y-94895000D01*
X150902622Y-95008039D01*
X150420853Y-95329946D01*
X150098946Y-95811715D01*
X149985907Y-96380000D01*
X140527000Y-96380000D01*
X140527000Y-94127000D01*
X196873000Y-94127000D01*
X196873000Y-147873000D01*
X196873000Y-147873000D01*
G37*
X196873000Y-147873000D02*
X175843224Y-147873000D01*
X178608112Y-145108112D01*
X178794537Y-144829107D01*
X178860000Y-144500000D01*
X178860000Y-141540868D01*
X179314176Y-141995044D01*
X179409995Y-142226943D01*
X179771155Y-142588735D01*
X180243276Y-142784777D01*
X180754481Y-142785223D01*
X181226943Y-142590005D01*
X181588735Y-142228845D01*
X181784777Y-141756724D01*
X181785223Y-141245519D01*
X181590005Y-140773057D01*
X181228845Y-140411265D01*
X180756724Y-140215223D01*
X180245519Y-140214777D01*
X179997942Y-140317074D01*
X179835000Y-140154132D01*
X179835000Y-137615246D01*
X180243276Y-137784777D01*
X180754481Y-137785223D01*
X181226943Y-137590005D01*
X181588735Y-137228845D01*
X181784777Y-136756724D01*
X181785223Y-136245519D01*
X181590005Y-135773057D01*
X181228845Y-135411265D01*
X180756724Y-135215223D01*
X180395776Y-135214908D01*
X180090434Y-134909566D01*
X179955702Y-134819541D01*
X179819541Y-134728561D01*
X179500000Y-134665000D01*
X178845868Y-134665000D01*
X178335000Y-134154132D01*
X178335000Y-132500000D01*
X178294030Y-132294030D01*
X178500000Y-132335000D01*
X179517863Y-132335000D01*
X179771155Y-132588735D01*
X180243276Y-132784777D01*
X180754481Y-132785223D01*
X181226943Y-132590005D01*
X181588735Y-132228845D01*
X181784777Y-131756724D01*
X181785223Y-131245519D01*
X181590005Y-130773057D01*
X181228845Y-130411265D01*
X180756724Y-130215223D01*
X180245519Y-130214777D01*
X179773057Y-130409995D01*
X179517606Y-130665000D01*
X178845868Y-130665000D01*
X178180868Y-130000000D01*
X179148868Y-129032000D01*
X193811907Y-129032000D01*
X193924946Y-129600285D01*
X194246853Y-130082054D01*
X194576026Y-130302000D01*
X194246853Y-130521946D01*
X193924946Y-131003715D01*
X193811907Y-131572000D01*
X193924946Y-132140285D01*
X194246853Y-132622054D01*
X194576026Y-132842000D01*
X194246853Y-133061946D01*
X193924946Y-133543715D01*
X193811907Y-134112000D01*
X193924946Y-134680285D01*
X194246853Y-135162054D01*
X194576026Y-135382000D01*
X194246853Y-135601946D01*
X193924946Y-136083715D01*
X193811907Y-136652000D01*
X193924946Y-137220285D01*
X194246853Y-137702054D01*
X194576026Y-137922000D01*
X194246853Y-138141946D01*
X193924946Y-138623715D01*
X193811907Y-139192000D01*
X193924946Y-139760285D01*
X194246853Y-140242054D01*
X194576026Y-140462000D01*
X194246853Y-140681946D01*
X193924946Y-141163715D01*
X193811907Y-141732000D01*
X193924946Y-142300285D01*
X194246853Y-142782054D01*
X194576026Y-143002000D01*
X194246853Y-143221946D01*
X193924946Y-143703715D01*
X193811907Y-144272000D01*
X193924946Y-144840285D01*
X194246853Y-145322054D01*
X194728622Y-145643961D01*
X195296907Y-145757000D01*
X195355093Y-145757000D01*
X195923378Y-145643961D01*
X196405147Y-145322054D01*
X196727054Y-144840285D01*
X196840093Y-144272000D01*
X196727054Y-143703715D01*
X196405147Y-143221946D01*
X196075974Y-143002000D01*
X196405147Y-142782054D01*
X196727054Y-142300285D01*
X196840093Y-141732000D01*
X196727054Y-141163715D01*
X196405147Y-140681946D01*
X196075974Y-140462000D01*
X196405147Y-140242054D01*
X196727054Y-139760285D01*
X196840093Y-139192000D01*
X196727054Y-138623715D01*
X196405147Y-138141946D01*
X196075974Y-137922000D01*
X196405147Y-137702054D01*
X196727054Y-137220285D01*
X196840093Y-136652000D01*
X196727054Y-136083715D01*
X196405147Y-135601946D01*
X196075974Y-135382000D01*
X196405147Y-135162054D01*
X196727054Y-134680285D01*
X196840093Y-134112000D01*
X196727054Y-133543715D01*
X196405147Y-133061946D01*
X196075974Y-132842000D01*
X196405147Y-132622054D01*
X196727054Y-132140285D01*
X196840093Y-131572000D01*
X196727054Y-131003715D01*
X196405147Y-130521946D01*
X196075974Y-130302000D01*
X196405147Y-130082054D01*
X196727054Y-129600285D01*
X196840093Y-129032000D01*
X196727054Y-128463715D01*
X196405147Y-127981946D01*
X196363548Y-127954150D01*
X196411317Y-127945162D01*
X196627441Y-127806090D01*
X196772431Y-127593890D01*
X196823440Y-127342000D01*
X196823440Y-125642000D01*
X196779162Y-125406683D01*
X196640090Y-125190559D01*
X196427890Y-125045569D01*
X196176000Y-124994560D01*
X194476000Y-124994560D01*
X194240683Y-125038838D01*
X194024559Y-125177910D01*
X193879569Y-125390110D01*
X193828560Y-125642000D01*
X193828560Y-127342000D01*
X193872838Y-127577317D01*
X194011910Y-127793441D01*
X194224110Y-127938431D01*
X194291541Y-127952086D01*
X194246853Y-127981946D01*
X193924946Y-128463715D01*
X193811907Y-129032000D01*
X179148868Y-129032000D01*
X180395958Y-127784910D01*
X180754481Y-127785223D01*
X181226943Y-127590005D01*
X181588735Y-127228845D01*
X181784777Y-126756724D01*
X181785223Y-126245519D01*
X181590005Y-125773057D01*
X181228845Y-125411265D01*
X180756724Y-125215223D01*
X180365986Y-125214882D01*
X182388716Y-123192152D01*
X182396838Y-123235317D01*
X182535910Y-123451441D01*
X182748110Y-123596431D01*
X183000000Y-123647440D01*
X185000000Y-123647440D01*
X185235317Y-123603162D01*
X185451441Y-123464090D01*
X185596431Y-123251890D01*
X185647440Y-123000000D01*
X185647440Y-122485750D01*
X186365000Y-122485750D01*
X186365000Y-123126310D01*
X186461673Y-123359699D01*
X186640302Y-123538327D01*
X186873691Y-123635000D01*
X187714250Y-123635000D01*
X187873000Y-123476250D01*
X187873000Y-122327000D01*
X188127000Y-122327000D01*
X188127000Y-123476250D01*
X188285750Y-123635000D01*
X189126309Y-123635000D01*
X189359698Y-123538327D01*
X189538327Y-123359699D01*
X189635000Y-123126310D01*
X189635000Y-122485750D01*
X189476250Y-122327000D01*
X188127000Y-122327000D01*
X187873000Y-122327000D01*
X186523750Y-122327000D01*
X186365000Y-122485750D01*
X185647440Y-122485750D01*
X185647440Y-121400000D01*
X185623674Y-121273690D01*
X186365000Y-121273690D01*
X186365000Y-121914250D01*
X186523750Y-122073000D01*
X187873000Y-122073000D01*
X187873000Y-120923750D01*
X188127000Y-120923750D01*
X188127000Y-122073000D01*
X189476250Y-122073000D01*
X189635000Y-121914250D01*
X189635000Y-121273690D01*
X189538327Y-121040301D01*
X189359698Y-120861673D01*
X189126309Y-120765000D01*
X188285750Y-120765000D01*
X188127000Y-120923750D01*
X187873000Y-120923750D01*
X187714250Y-120765000D01*
X186873691Y-120765000D01*
X186640302Y-120861673D01*
X186461673Y-121040301D01*
X186365000Y-121273690D01*
X185623674Y-121273690D01*
X185603162Y-121164683D01*
X185464090Y-120948559D01*
X185251890Y-120803569D01*
X185000000Y-120752560D01*
X183000000Y-120752560D01*
X182764683Y-120796838D01*
X182548559Y-120935910D01*
X182403569Y-121148110D01*
X182359648Y-121365000D01*
X182200000Y-121365000D01*
X181880459Y-121428561D01*
X181659427Y-121576250D01*
X181609566Y-121609566D01*
X178147440Y-125071692D01*
X178147440Y-123100000D01*
X178103162Y-122864683D01*
X177964090Y-122648559D01*
X177751890Y-122503569D01*
X177500000Y-122452560D01*
X175900000Y-122452560D01*
X175664683Y-122496838D01*
X175448559Y-122635910D01*
X175303569Y-122848110D01*
X175279898Y-122965000D01*
X175235000Y-122965000D01*
X175235000Y-120385750D01*
X175265000Y-120385750D01*
X175265000Y-121226309D01*
X175361673Y-121459698D01*
X175540301Y-121638327D01*
X175773690Y-121735000D01*
X176414250Y-121735000D01*
X176573000Y-121576250D01*
X176573000Y-120227000D01*
X176827000Y-120227000D01*
X176827000Y-121576250D01*
X176985750Y-121735000D01*
X177626310Y-121735000D01*
X177859699Y-121638327D01*
X178038327Y-121459698D01*
X178135000Y-121226309D01*
X178135000Y-120385750D01*
X177976250Y-120227000D01*
X176827000Y-120227000D01*
X176573000Y-120227000D01*
X175423750Y-120227000D01*
X175265000Y-120385750D01*
X175235000Y-120385750D01*
X175235000Y-118973691D01*
X175265000Y-118973691D01*
X175265000Y-119814250D01*
X175423750Y-119973000D01*
X176573000Y-119973000D01*
X176573000Y-118623750D01*
X176827000Y-118623750D01*
X176827000Y-119973000D01*
X177976250Y-119973000D01*
X178135000Y-119814250D01*
X178135000Y-118973691D01*
X178038327Y-118740302D01*
X177859699Y-118561673D01*
X177626310Y-118465000D01*
X176985750Y-118465000D01*
X176827000Y-118623750D01*
X176573000Y-118623750D01*
X176414250Y-118465000D01*
X175773690Y-118465000D01*
X175540301Y-118561673D01*
X175361673Y-118740302D01*
X175265000Y-118973691D01*
X175235000Y-118973691D01*
X175235000Y-117000000D01*
X179140000Y-117000000D01*
X179140000Y-118500000D01*
X179205464Y-118829108D01*
X179215135Y-118843582D01*
X179214777Y-119254481D01*
X179409995Y-119726943D01*
X179771155Y-120088735D01*
X180243276Y-120284777D01*
X180754481Y-120285223D01*
X181226943Y-120090005D01*
X181588735Y-119728845D01*
X181784777Y-119256724D01*
X181785199Y-118772530D01*
X182226943Y-118590005D01*
X182588735Y-118228845D01*
X182784777Y-117756724D01*
X182785061Y-117431163D01*
X184608112Y-115608112D01*
X184684575Y-115493676D01*
X184794536Y-115329108D01*
X184860000Y-115000000D01*
X184860000Y-100076000D01*
X193811907Y-100076000D01*
X193924946Y-100644285D01*
X194246853Y-101126054D01*
X194576026Y-101346000D01*
X194246853Y-101565946D01*
X193924946Y-102047715D01*
X193811907Y-102616000D01*
X193924946Y-103184285D01*
X194246853Y-103666054D01*
X194576026Y-103886000D01*
X194246853Y-104105946D01*
X193924946Y-104587715D01*
X193811907Y-105156000D01*
X193924946Y-105724285D01*
X194246853Y-106206054D01*
X194576026Y-106426000D01*
X194246853Y-106645946D01*
X193924946Y-107127715D01*
X193811907Y-107696000D01*
X193924946Y-108264285D01*
X194246853Y-108746054D01*
X194576026Y-108966000D01*
X194246853Y-109185946D01*
X193924946Y-109667715D01*
X193811907Y-110236000D01*
X193924946Y-110804285D01*
X194246853Y-111286054D01*
X194576026Y-111506000D01*
X194246853Y-111725946D01*
X193924946Y-112207715D01*
X193811907Y-112776000D01*
X193924946Y-113344285D01*
X194246853Y-113826054D01*
X194576026Y-114046000D01*
X194246853Y-114265946D01*
X193924946Y-114747715D01*
X193811907Y-115316000D01*
X193924946Y-115884285D01*
X194246853Y-116366054D01*
X194728622Y-116687961D01*
X195296907Y-116801000D01*
X195355093Y-116801000D01*
X195923378Y-116687961D01*
X196405147Y-116366054D01*
X196727054Y-115884285D01*
X196840093Y-115316000D01*
X196727054Y-114747715D01*
X196405147Y-114265946D01*
X196075974Y-114046000D01*
X196405147Y-113826054D01*
X196727054Y-113344285D01*
X196840093Y-112776000D01*
X196727054Y-112207715D01*
X196405147Y-111725946D01*
X196075974Y-111506000D01*
X196405147Y-111286054D01*
X196727054Y-110804285D01*
X196840093Y-110236000D01*
X196727054Y-109667715D01*
X196405147Y-109185946D01*
X196075974Y-108966000D01*
X196405147Y-108746054D01*
X196727054Y-108264285D01*
X196840093Y-107696000D01*
X196727054Y-107127715D01*
X196405147Y-106645946D01*
X196075974Y-106426000D01*
X196405147Y-106206054D01*
X196727054Y-105724285D01*
X196840093Y-105156000D01*
X196727054Y-104587715D01*
X196405147Y-104105946D01*
X196075974Y-103886000D01*
X196405147Y-103666054D01*
X196727054Y-103184285D01*
X196840093Y-102616000D01*
X196727054Y-102047715D01*
X196405147Y-101565946D01*
X196075974Y-101346000D01*
X196405147Y-101126054D01*
X196727054Y-100644285D01*
X196840093Y-100076000D01*
X196727054Y-99507715D01*
X196405147Y-99025946D01*
X196363548Y-98998150D01*
X196411317Y-98989162D01*
X196627441Y-98850090D01*
X196772431Y-98637890D01*
X196823440Y-98386000D01*
X196823440Y-96686000D01*
X196779162Y-96450683D01*
X196640090Y-96234559D01*
X196427890Y-96089569D01*
X196176000Y-96038560D01*
X194476000Y-96038560D01*
X194240683Y-96082838D01*
X194024559Y-96221910D01*
X193879569Y-96434110D01*
X193828560Y-96686000D01*
X193828560Y-98386000D01*
X193872838Y-98621317D01*
X194011910Y-98837441D01*
X194224110Y-98982431D01*
X194291541Y-98996086D01*
X194246853Y-99025946D01*
X193924946Y-99507715D01*
X193811907Y-100076000D01*
X184860000Y-100076000D01*
X184860000Y-100000000D01*
X184794536Y-99670892D01*
X184608112Y-99391888D01*
X182108112Y-96891888D01*
X181930268Y-96773057D01*
X181829108Y-96705464D01*
X181500000Y-96640000D01*
X181457180Y-96640000D01*
X181228845Y-96411265D01*
X180756724Y-96215223D01*
X180245519Y-96214777D01*
X179773057Y-96409995D01*
X179411265Y-96771155D01*
X179215223Y-97243276D01*
X179214777Y-97754481D01*
X179409995Y-98226943D01*
X179771155Y-98588735D01*
X180159898Y-98750155D01*
X179773057Y-98909995D01*
X179411265Y-99271155D01*
X179215223Y-99743276D01*
X179214777Y-100254481D01*
X179409995Y-100726943D01*
X179771155Y-101088735D01*
X180243276Y-101284777D01*
X180754481Y-101285223D01*
X181226943Y-101090005D01*
X181300426Y-101016650D01*
X182140000Y-101856224D01*
X182140000Y-113643776D01*
X179391888Y-116391888D01*
X179205464Y-116670892D01*
X179140000Y-117000000D01*
X175235000Y-117000000D01*
X175235000Y-113721659D01*
X175336277Y-113702602D01*
X175552401Y-113563530D01*
X175697391Y-113351330D01*
X175748400Y-113099440D01*
X175748400Y-111900560D01*
X175704122Y-111665243D01*
X175565050Y-111449119D01*
X175352850Y-111304129D01*
X175100960Y-111253120D01*
X173500760Y-111253120D01*
X173265443Y-111297398D01*
X173049319Y-111436470D01*
X172904329Y-111648670D01*
X172853320Y-111900560D01*
X172853320Y-113099440D01*
X172897598Y-113334757D01*
X172965000Y-113439503D01*
X172965000Y-115748776D01*
X171559140Y-114342916D01*
X171559140Y-113735609D01*
X171734557Y-113702602D01*
X171950681Y-113563530D01*
X172095671Y-113351330D01*
X172146680Y-113099440D01*
X172146680Y-111900560D01*
X172102402Y-111665243D01*
X171963330Y-111449119D01*
X171751130Y-111304129D01*
X171499240Y-111253120D01*
X171360000Y-111253120D01*
X171360000Y-110947440D01*
X171500000Y-110947440D01*
X171735317Y-110903162D01*
X171951441Y-110764090D01*
X172096431Y-110551890D01*
X172147440Y-110300000D01*
X172147440Y-109785750D01*
X172865000Y-109785750D01*
X172865000Y-110426310D01*
X172961673Y-110659699D01*
X173140302Y-110838327D01*
X173373691Y-110935000D01*
X174214250Y-110935000D01*
X174373000Y-110776250D01*
X174373000Y-109627000D01*
X174627000Y-109627000D01*
X174627000Y-110776250D01*
X174785750Y-110935000D01*
X175626309Y-110935000D01*
X175859698Y-110838327D01*
X176038327Y-110659699D01*
X176135000Y-110426310D01*
X176135000Y-109785750D01*
X175976250Y-109627000D01*
X174627000Y-109627000D01*
X174373000Y-109627000D01*
X173023750Y-109627000D01*
X172865000Y-109785750D01*
X172147440Y-109785750D01*
X172147440Y-108700000D01*
X172123674Y-108573690D01*
X172865000Y-108573690D01*
X172865000Y-109214250D01*
X173023750Y-109373000D01*
X174373000Y-109373000D01*
X174373000Y-108223750D01*
X174627000Y-108223750D01*
X174627000Y-109373000D01*
X175976250Y-109373000D01*
X176135000Y-109214250D01*
X176135000Y-108573690D01*
X176038327Y-108340301D01*
X175859698Y-108161673D01*
X175626309Y-108065000D01*
X174785750Y-108065000D01*
X174627000Y-108223750D01*
X174373000Y-108223750D01*
X174214250Y-108065000D01*
X173373691Y-108065000D01*
X173140302Y-108161673D01*
X172961673Y-108340301D01*
X172865000Y-108573690D01*
X172123674Y-108573690D01*
X172103162Y-108464683D01*
X171964090Y-108248559D01*
X171751890Y-108103569D01*
X171500000Y-108052560D01*
X169500000Y-108052560D01*
X169264683Y-108096838D01*
X169048559Y-108235910D01*
X168903569Y-108448110D01*
X168852560Y-108700000D01*
X168852560Y-110300000D01*
X168896838Y-110535317D01*
X169035910Y-110751441D01*
X169248110Y-110896431D01*
X169500000Y-110947440D01*
X169640000Y-110947440D01*
X169640000Y-111312663D01*
X169447599Y-111436470D01*
X169302609Y-111648670D01*
X169251600Y-111900560D01*
X169251600Y-113099440D01*
X169295878Y-113334757D01*
X169434950Y-113550881D01*
X169647150Y-113695871D01*
X169839140Y-113734750D01*
X169839140Y-114699140D01*
X169904604Y-115028248D01*
X169979274Y-115140000D01*
X170091028Y-115307252D01*
X170923776Y-116140000D01*
X167856224Y-116140000D01*
X167360000Y-115643776D01*
X167360000Y-107856224D01*
X168356224Y-106860000D01*
X168863850Y-106860000D01*
X168896838Y-107035317D01*
X169035910Y-107251441D01*
X169248110Y-107396431D01*
X169500000Y-107447440D01*
X171500000Y-107447440D01*
X171735317Y-107403162D01*
X171951441Y-107264090D01*
X172096431Y-107051890D01*
X172147440Y-106800000D01*
X172147440Y-106285750D01*
X172865000Y-106285750D01*
X172865000Y-106926310D01*
X172961673Y-107159699D01*
X173140302Y-107338327D01*
X173373691Y-107435000D01*
X174214250Y-107435000D01*
X174373000Y-107276250D01*
X174373000Y-106127000D01*
X174627000Y-106127000D01*
X174627000Y-107276250D01*
X174785750Y-107435000D01*
X175626309Y-107435000D01*
X175859698Y-107338327D01*
X176038327Y-107159699D01*
X176135000Y-106926310D01*
X176135000Y-106285750D01*
X175976250Y-106127000D01*
X174627000Y-106127000D01*
X174373000Y-106127000D01*
X173023750Y-106127000D01*
X172865000Y-106285750D01*
X172147440Y-106285750D01*
X172147440Y-105200000D01*
X172123674Y-105073690D01*
X172865000Y-105073690D01*
X172865000Y-105714250D01*
X173023750Y-105873000D01*
X174373000Y-105873000D01*
X174373000Y-104723750D01*
X174627000Y-104723750D01*
X174627000Y-105873000D01*
X175976250Y-105873000D01*
X176135000Y-105714250D01*
X176135000Y-105073690D01*
X176038327Y-104840301D01*
X175859698Y-104661673D01*
X175626309Y-104565000D01*
X174785750Y-104565000D01*
X174627000Y-104723750D01*
X174373000Y-104723750D01*
X174214250Y-104565000D01*
X173373691Y-104565000D01*
X173140302Y-104661673D01*
X172961673Y-104840301D01*
X172865000Y-105073690D01*
X172123674Y-105073690D01*
X172103162Y-104964683D01*
X171964090Y-104748559D01*
X171751890Y-104603569D01*
X171500000Y-104552560D01*
X169500000Y-104552560D01*
X169264683Y-104596838D01*
X169048559Y-104735910D01*
X168903569Y-104948110D01*
X168864710Y-105140000D01*
X168000000Y-105140000D01*
X167670892Y-105205464D01*
X167391888Y-105391888D01*
X165891888Y-106891888D01*
X165705464Y-107170892D01*
X165640000Y-107500000D01*
X165640000Y-116000000D01*
X165705464Y-116329108D01*
X165891888Y-116608112D01*
X166891888Y-117608112D01*
X167170893Y-117794537D01*
X167428481Y-117845775D01*
X167273057Y-117909995D01*
X166911265Y-118271155D01*
X166715223Y-118743276D01*
X166714777Y-119254481D01*
X166909995Y-119726943D01*
X167271155Y-120088735D01*
X167743276Y-120284777D01*
X168254481Y-120285223D01*
X168726943Y-120090005D01*
X168957350Y-119860000D01*
X172500000Y-119860000D01*
X172829108Y-119794536D01*
X172965000Y-119703736D01*
X172965000Y-123717951D01*
X172661265Y-124021155D01*
X172465223Y-124493276D01*
X172464777Y-125004481D01*
X172659995Y-125476943D01*
X173021155Y-125838735D01*
X173493276Y-126034777D01*
X174004481Y-126035223D01*
X174476943Y-125840005D01*
X174838735Y-125478845D01*
X174939988Y-125235000D01*
X175277962Y-125235000D01*
X175296838Y-125335317D01*
X175435910Y-125551441D01*
X175648110Y-125696431D01*
X175900000Y-125747440D01*
X177471692Y-125747440D01*
X177254132Y-125965000D01*
X174400000Y-125965000D01*
X174080459Y-126028561D01*
X173950898Y-126115131D01*
X173545519Y-126114777D01*
X173073057Y-126309995D01*
X172711265Y-126671155D01*
X172515223Y-127143276D01*
X172514777Y-127654481D01*
X172709995Y-128126943D01*
X173071155Y-128488735D01*
X173495648Y-128665000D01*
X170000000Y-128665000D01*
X169680459Y-128728561D01*
X169409566Y-128909566D01*
X167409566Y-130909566D01*
X167228561Y-131180459D01*
X167165000Y-131500000D01*
X167165000Y-134721667D01*
X166420053Y-135714929D01*
X166284999Y-135714811D01*
X166284999Y-125224996D01*
X166285000Y-125224991D01*
X166219536Y-124895884D01*
X166033111Y-124616879D01*
X164884949Y-123468717D01*
X164885231Y-123145519D01*
X164690013Y-122673057D01*
X164328853Y-122311265D01*
X163856732Y-122115223D01*
X163345527Y-122114777D01*
X162873065Y-122309995D01*
X162835000Y-122347994D01*
X162835000Y-108845868D01*
X164895958Y-106784910D01*
X165254481Y-106785223D01*
X165726943Y-106590005D01*
X166088735Y-106228845D01*
X166284777Y-105756724D01*
X166285223Y-105245519D01*
X166090005Y-104773057D01*
X165728845Y-104411265D01*
X165256724Y-104215223D01*
X164745519Y-104214777D01*
X164273057Y-104409995D01*
X163911265Y-104771155D01*
X163715223Y-105243276D01*
X163714908Y-105604224D01*
X161635000Y-107684132D01*
X161635000Y-101177239D01*
X161656120Y-101156119D01*
X162010543Y-100625688D01*
X162135001Y-100000000D01*
X162010543Y-99374312D01*
X161656120Y-98843880D01*
X161125688Y-98489457D01*
X160500000Y-98364999D01*
X159874312Y-98489457D01*
X159343881Y-98843880D01*
X158843880Y-99343880D01*
X158489457Y-99874312D01*
X158364999Y-100500000D01*
X158365000Y-100500005D01*
X158365000Y-106637875D01*
X158250000Y-106615000D01*
X147289018Y-106615000D01*
X147214090Y-106498559D01*
X147001890Y-106353569D01*
X146750000Y-106302560D01*
X144750000Y-106302560D01*
X144514683Y-106346838D01*
X144298559Y-106485910D01*
X144153569Y-106698110D01*
X144102560Y-106950000D01*
X144102560Y-108550000D01*
X144146838Y-108785317D01*
X144285910Y-109001441D01*
X144468769Y-109126383D01*
X144298559Y-109235910D01*
X144153569Y-109448110D01*
X144102560Y-109700000D01*
X144102560Y-111300000D01*
X144146838Y-111535317D01*
X144279793Y-111741935D01*
X143873057Y-111909995D01*
X143511265Y-112271155D01*
X143315223Y-112743276D01*
X143314777Y-113254481D01*
X143509995Y-113726943D01*
X143871155Y-114088735D01*
X144343276Y-114284777D01*
X144854481Y-114285223D01*
X145326943Y-114090005D01*
X145339569Y-114077401D01*
X145484346Y-114048603D01*
X145852566Y-113802566D01*
X146552566Y-113102567D01*
X146798603Y-112734346D01*
X146805264Y-112700860D01*
X146885000Y-112300000D01*
X146885000Y-111922038D01*
X146985317Y-111903162D01*
X147046564Y-111863751D01*
X147140000Y-111957350D01*
X147140000Y-112000000D01*
X147205464Y-112329108D01*
X147319650Y-112500000D01*
X147391888Y-112608112D01*
X148640000Y-113856224D01*
X148640000Y-121000000D01*
X148649371Y-121047112D01*
X148645260Y-121094971D01*
X148681846Y-121210373D01*
X148705464Y-121329108D01*
X148732151Y-121369047D01*
X148746667Y-121414836D01*
X148824628Y-121507450D01*
X148891888Y-121608112D01*
X148931828Y-121634799D01*
X148962762Y-121671547D01*
X151140000Y-123413337D01*
X151140000Y-124542820D01*
X150911265Y-124771155D01*
X150715223Y-125243276D01*
X150714777Y-125754481D01*
X150909995Y-126226943D01*
X151271155Y-126588735D01*
X151743276Y-126784777D01*
X152254481Y-126785223D01*
X152726943Y-126590005D01*
X152749723Y-126567265D01*
X152771155Y-126588735D01*
X153243276Y-126784777D01*
X153754481Y-126785223D01*
X154226943Y-126590005D01*
X154249723Y-126567265D01*
X154271155Y-126588735D01*
X154743276Y-126784777D01*
X155254481Y-126785223D01*
X155726943Y-126590005D01*
X156088735Y-126228845D01*
X156284777Y-125756724D01*
X156285223Y-125245519D01*
X156090005Y-124773057D01*
X155860000Y-124542650D01*
X155860000Y-124500005D01*
X155860001Y-124500000D01*
X155794537Y-124170893D01*
X155608112Y-123891888D01*
X154860000Y-123143776D01*
X154860000Y-122000000D01*
X154794536Y-121670892D01*
X154608112Y-121391888D01*
X153360000Y-120143776D01*
X153360000Y-113500000D01*
X153294536Y-113170892D01*
X153108112Y-112891888D01*
X152860000Y-112643776D01*
X152860000Y-111957180D01*
X153088735Y-111728845D01*
X153284777Y-111256724D01*
X153285223Y-110745519D01*
X153090005Y-110273057D01*
X152728845Y-109911265D01*
X152256724Y-109715223D01*
X151745519Y-109714777D01*
X151273057Y-109909995D01*
X150999840Y-110182734D01*
X150728845Y-109911265D01*
X150256724Y-109715223D01*
X149745519Y-109714777D01*
X149273057Y-109909995D01*
X148999840Y-110182734D01*
X148728845Y-109911265D01*
X148256724Y-109715223D01*
X147745519Y-109714777D01*
X147397440Y-109858601D01*
X147397440Y-109700000D01*
X147353162Y-109464683D01*
X147214090Y-109248559D01*
X147031231Y-109123617D01*
X147201441Y-109014090D01*
X147289644Y-108885000D01*
X157779868Y-108885000D01*
X158365000Y-109470132D01*
X158365000Y-142000000D01*
X158489457Y-142625687D01*
X158843880Y-143156120D01*
X159374313Y-143510543D01*
X160000000Y-143635000D01*
X160358548Y-143563680D01*
X162960847Y-146165979D01*
X163109995Y-146526943D01*
X163471155Y-146888735D01*
X163943276Y-147084777D01*
X164454481Y-147085223D01*
X164926943Y-146890005D01*
X165288735Y-146528845D01*
X165484777Y-146056724D01*
X165485087Y-145701311D01*
X167656776Y-147873000D01*
X140527000Y-147873000D01*
X140527000Y-145454000D01*
X141504560Y-145454000D01*
X141504560Y-147154000D01*
X141548838Y-147389317D01*
X141687910Y-147605441D01*
X141900110Y-147750431D01*
X142152000Y-147801440D01*
X143852000Y-147801440D01*
X144087317Y-147757162D01*
X144303441Y-147618090D01*
X144448431Y-147405890D01*
X144462086Y-147338459D01*
X144491946Y-147383147D01*
X144973715Y-147705054D01*
X145542000Y-147818093D01*
X146110285Y-147705054D01*
X146592054Y-147383147D01*
X146812000Y-147053974D01*
X147031946Y-147383147D01*
X147513715Y-147705054D01*
X148082000Y-147818093D01*
X148650285Y-147705054D01*
X149132054Y-147383147D01*
X149352000Y-147053974D01*
X149571946Y-147383147D01*
X150053715Y-147705054D01*
X150622000Y-147818093D01*
X151190285Y-147705054D01*
X151672054Y-147383147D01*
X151892000Y-147053974D01*
X152111946Y-147383147D01*
X152593715Y-147705054D01*
X153162000Y-147818093D01*
X153730285Y-147705054D01*
X154212054Y-147383147D01*
X154432000Y-147053974D01*
X154651946Y-147383147D01*
X155133715Y-147705054D01*
X155702000Y-147818093D01*
X156270285Y-147705054D01*
X156752054Y-147383147D01*
X156972000Y-147053974D01*
X157191946Y-147383147D01*
X157673715Y-147705054D01*
X158242000Y-147818093D01*
X158810285Y-147705054D01*
X159292054Y-147383147D01*
X159512000Y-147053974D01*
X159731946Y-147383147D01*
X160213715Y-147705054D01*
X160782000Y-147818093D01*
X161350285Y-147705054D01*
X161832054Y-147383147D01*
X162153961Y-146901378D01*
X162267000Y-146333093D01*
X162267000Y-146274907D01*
X162153961Y-145706622D01*
X161832054Y-145224853D01*
X161350285Y-144902946D01*
X160782000Y-144789907D01*
X160213715Y-144902946D01*
X159731946Y-145224853D01*
X159512000Y-145554026D01*
X159292054Y-145224853D01*
X158810285Y-144902946D01*
X158242000Y-144789907D01*
X157673715Y-144902946D01*
X157191946Y-145224853D01*
X156972000Y-145554026D01*
X156752054Y-145224853D01*
X156270285Y-144902946D01*
X155702000Y-144789907D01*
X155133715Y-144902946D01*
X154651946Y-145224853D01*
X154432000Y-145554026D01*
X154212054Y-145224853D01*
X153730285Y-144902946D01*
X153162000Y-144789907D01*
X152593715Y-144902946D01*
X152111946Y-145224853D01*
X151892000Y-145554026D01*
X151672054Y-145224853D01*
X151190285Y-144902946D01*
X150622000Y-144789907D01*
X150053715Y-144902946D01*
X149571946Y-145224853D01*
X149352000Y-145554026D01*
X149132054Y-145224853D01*
X148650285Y-144902946D01*
X148082000Y-144789907D01*
X147513715Y-144902946D01*
X147031946Y-145224853D01*
X146812000Y-145554026D01*
X146592054Y-145224853D01*
X146110285Y-144902946D01*
X145542000Y-144789907D01*
X144973715Y-144902946D01*
X144491946Y-145224853D01*
X144464150Y-145266452D01*
X144455162Y-145218683D01*
X144316090Y-145002559D01*
X144103890Y-144857569D01*
X143852000Y-144806560D01*
X142152000Y-144806560D01*
X141916683Y-144850838D01*
X141700559Y-144989910D01*
X141555569Y-145202110D01*
X141504560Y-145454000D01*
X140527000Y-145454000D01*
X140527000Y-122674285D01*
X145114760Y-122674285D01*
X145325169Y-123183515D01*
X145714436Y-123573461D01*
X146223298Y-123784759D01*
X146774285Y-123785240D01*
X147283515Y-123574831D01*
X147673461Y-123185564D01*
X147884759Y-122676702D01*
X147885240Y-122125715D01*
X147674831Y-121616485D01*
X147285564Y-121226539D01*
X146776702Y-121015241D01*
X146225715Y-121014760D01*
X145716485Y-121225169D01*
X145326539Y-121614436D01*
X145115241Y-122123298D01*
X145114760Y-122674285D01*
X140527000Y-122674285D01*
X140527000Y-117774285D01*
X145114760Y-117774285D01*
X145325169Y-118283515D01*
X145714436Y-118673461D01*
X146223298Y-118884759D01*
X146774285Y-118885240D01*
X147283515Y-118674831D01*
X147673461Y-118285564D01*
X147884759Y-117776702D01*
X147885240Y-117225715D01*
X147674831Y-116716485D01*
X147285564Y-116326539D01*
X146776702Y-116115241D01*
X146225715Y-116114760D01*
X145716485Y-116325169D01*
X145326539Y-116714436D01*
X145115241Y-117223298D01*
X145114760Y-117774285D01*
X140527000Y-117774285D01*
X140527000Y-111894949D01*
X140623691Y-111935000D01*
X141464250Y-111935000D01*
X141623000Y-111776250D01*
X141623000Y-110627000D01*
X141877000Y-110627000D01*
X141877000Y-111776250D01*
X142035750Y-111935000D01*
X142876309Y-111935000D01*
X143109698Y-111838327D01*
X143288327Y-111659699D01*
X143385000Y-111426310D01*
X143385000Y-110785750D01*
X143226250Y-110627000D01*
X141877000Y-110627000D01*
X141623000Y-110627000D01*
X141603000Y-110627000D01*
X141603000Y-110373000D01*
X141623000Y-110373000D01*
X141623000Y-109223750D01*
X141524250Y-109125000D01*
X141623000Y-109026250D01*
X141623000Y-107877000D01*
X141877000Y-107877000D01*
X141877000Y-109026250D01*
X141975750Y-109125000D01*
X141877000Y-109223750D01*
X141877000Y-110373000D01*
X143226250Y-110373000D01*
X143385000Y-110214250D01*
X143385000Y-109573690D01*
X143288327Y-109340301D01*
X143109698Y-109161673D01*
X143021162Y-109125000D01*
X143109698Y-109088327D01*
X143288327Y-108909699D01*
X143385000Y-108676310D01*
X143385000Y-108035750D01*
X143226250Y-107877000D01*
X141877000Y-107877000D01*
X141623000Y-107877000D01*
X141603000Y-107877000D01*
X141603000Y-107623000D01*
X141623000Y-107623000D01*
X141623000Y-106473750D01*
X141877000Y-106473750D01*
X141877000Y-107623000D01*
X143226250Y-107623000D01*
X143385000Y-107464250D01*
X143385000Y-106823690D01*
X143288327Y-106590301D01*
X143109698Y-106411673D01*
X142876309Y-106315000D01*
X142035750Y-106315000D01*
X141877000Y-106473750D01*
X141623000Y-106473750D01*
X141464250Y-106315000D01*
X140623691Y-106315000D01*
X140527000Y-106355051D01*
X140527000Y-104285750D01*
X150015000Y-104285750D01*
X150015000Y-104976310D01*
X150111673Y-105209699D01*
X150290302Y-105388327D01*
X150523691Y-105485000D01*
X151214250Y-105485000D01*
X151373000Y-105326250D01*
X151373000Y-104127000D01*
X151627000Y-104127000D01*
X151627000Y-105326250D01*
X151785750Y-105485000D01*
X152476309Y-105485000D01*
X152709698Y-105388327D01*
X152888327Y-105209699D01*
X152985000Y-104976310D01*
X152985000Y-104285750D01*
X152826250Y-104127000D01*
X151627000Y-104127000D01*
X151373000Y-104127000D01*
X150173750Y-104127000D01*
X150015000Y-104285750D01*
X140527000Y-104285750D01*
X140527000Y-96380000D01*
X149985907Y-96380000D01*
X150098946Y-96948285D01*
X150420853Y-97430054D01*
X150750026Y-97650000D01*
X150420853Y-97869946D01*
X150098946Y-98351715D01*
X149985907Y-98920000D01*
X150098946Y-99488285D01*
X150420853Y-99970054D01*
X150750026Y-100190000D01*
X150420853Y-100409946D01*
X150098946Y-100891715D01*
X149985907Y-101460000D01*
X150098946Y-102028285D01*
X150420853Y-102510054D01*
X150464777Y-102539403D01*
X150290302Y-102611673D01*
X150111673Y-102790301D01*
X150015000Y-103023690D01*
X150015000Y-103714250D01*
X150173750Y-103873000D01*
X151373000Y-103873000D01*
X151373000Y-103853000D01*
X151627000Y-103853000D01*
X151627000Y-103873000D01*
X152826250Y-103873000D01*
X152985000Y-103714250D01*
X152985000Y-103023690D01*
X152888327Y-102790301D01*
X152709698Y-102611673D01*
X152535223Y-102539403D01*
X152579147Y-102510054D01*
X152901054Y-102028285D01*
X153014093Y-101460000D01*
X152901054Y-100891715D01*
X152579147Y-100409946D01*
X152249974Y-100190000D01*
X152579147Y-99970054D01*
X152706137Y-99780000D01*
X153063776Y-99780000D01*
X154215059Y-100931283D01*
X154214777Y-101254481D01*
X154409995Y-101726943D01*
X154771155Y-102088735D01*
X155243276Y-102284777D01*
X155754481Y-102285223D01*
X156226943Y-102090005D01*
X156588735Y-101728845D01*
X156784777Y-101256724D01*
X156785223Y-100745519D01*
X156590005Y-100273057D01*
X156228845Y-99911265D01*
X155756724Y-99715223D01*
X155431163Y-99714939D01*
X154028112Y-98311888D01*
X153900982Y-98226943D01*
X153749108Y-98125464D01*
X153420000Y-98060000D01*
X152706137Y-98060000D01*
X152579147Y-97869946D01*
X152249974Y-97650000D01*
X152579147Y-97430054D01*
X152901054Y-96948285D01*
X153014093Y-96380000D01*
X152901054Y-95811715D01*
X152579147Y-95329946D01*
X152097378Y-95008039D01*
X151529093Y-94895000D01*
X151470907Y-94895000D01*
X150902622Y-95008039D01*
X150420853Y-95329946D01*
X150098946Y-95811715D01*
X149985907Y-96380000D01*
X140527000Y-96380000D01*
X140527000Y-94127000D01*
X196873000Y-94127000D01*
X196873000Y-147873000D01*
G36*
X176207000Y-139833000D02*
X176227000Y-139833000D01*
X176227000Y-140087000D01*
X176207000Y-140087000D01*
X176207000Y-140107000D01*
X175953000Y-140107000D01*
X175953000Y-140087000D01*
X175933000Y-140087000D01*
X175933000Y-139833000D01*
X175953000Y-139833000D01*
X175953000Y-139813000D01*
X176207000Y-139813000D01*
X176207000Y-139833000D01*
X176207000Y-139833000D01*
G37*
X176207000Y-139833000D02*
X176227000Y-139833000D01*
X176227000Y-140087000D01*
X176207000Y-140087000D01*
X176207000Y-140107000D01*
X175953000Y-140107000D01*
X175953000Y-140087000D01*
X175933000Y-140087000D01*
X175933000Y-139833000D01*
X175953000Y-139833000D01*
X175953000Y-139813000D01*
X176207000Y-139813000D01*
X176207000Y-139833000D01*
G36*
X135141832Y-152369846D02*
X135146772Y-152372813D01*
X135151709Y-152384761D01*
X135901293Y-153135655D01*
X135916408Y-153141931D01*
X135920154Y-153148168D01*
X136401528Y-153343370D01*
X136701670Y-153468000D01*
X134822000Y-153468000D01*
X134822000Y-151597705D01*
X135141832Y-152369846D01*
X135141832Y-152369846D01*
G37*
X135141832Y-152369846D02*
X135146772Y-152372813D01*
X135151709Y-152384761D01*
X135901293Y-153135655D01*
X135916408Y-153141931D01*
X135920154Y-153148168D01*
X136401528Y-153343370D01*
X136701670Y-153468000D01*
X134822000Y-153468000D01*
X134822000Y-151597705D01*
X135141832Y-152369846D01*
G36*
X136174154Y-88913832D02*
X136171187Y-88918772D01*
X136159239Y-88923709D01*
X135408345Y-89673293D01*
X135402069Y-89688408D01*
X135395832Y-89692154D01*
X135200630Y-90173528D01*
X135001464Y-90653173D01*
X135001454Y-90664700D01*
X134997120Y-90675388D01*
X135000991Y-91194955D01*
X135000538Y-91714172D01*
X135004939Y-91724823D01*
X135005025Y-91736357D01*
X135395832Y-92679846D01*
X135400772Y-92682813D01*
X135405709Y-92694761D01*
X136155293Y-93445655D01*
X136170408Y-93451931D01*
X136174154Y-93458168D01*
X136655528Y-93653370D01*
X137135173Y-93852536D01*
X137146700Y-93852546D01*
X137157388Y-93856880D01*
X137676955Y-93853009D01*
X138196172Y-93853462D01*
X138206823Y-93849061D01*
X138218357Y-93848975D01*
X139161846Y-93458168D01*
X139164813Y-93453228D01*
X139176761Y-93448291D01*
X139927655Y-92698707D01*
X139933931Y-92683592D01*
X139940168Y-92679846D01*
X140135370Y-92198472D01*
X140334536Y-91718827D01*
X140334546Y-91707300D01*
X140338880Y-91696612D01*
X140335009Y-91177045D01*
X140335462Y-90657828D01*
X140331061Y-90647177D01*
X140330975Y-90635643D01*
X139940168Y-89692154D01*
X139935228Y-89689187D01*
X139930291Y-89677239D01*
X139180707Y-88926345D01*
X139165592Y-88920069D01*
X139161846Y-88913832D01*
X138680472Y-88718630D01*
X138380330Y-88594000D01*
X199176295Y-88594000D01*
X198404154Y-88913832D01*
X198401187Y-88918772D01*
X198389239Y-88923709D01*
X197638345Y-89673293D01*
X197632069Y-89688408D01*
X197625832Y-89692154D01*
X197430630Y-90173528D01*
X197231464Y-90653173D01*
X197231454Y-90664700D01*
X197227120Y-90675388D01*
X197230991Y-91194955D01*
X197230538Y-91714172D01*
X197234939Y-91724823D01*
X197235025Y-91736357D01*
X197625832Y-92679846D01*
X197630772Y-92682813D01*
X197635709Y-92694761D01*
X198385293Y-93445655D01*
X198400408Y-93451931D01*
X198404154Y-93458168D01*
X198885528Y-93653370D01*
X199365173Y-93852536D01*
X199376700Y-93852546D01*
X199387388Y-93856880D01*
X199906955Y-93853009D01*
X200426172Y-93853462D01*
X200436823Y-93849061D01*
X200448357Y-93848975D01*
X201391846Y-93458168D01*
X201394813Y-93453228D01*
X201406761Y-93448291D01*
X202157655Y-92698707D01*
X202163931Y-92683592D01*
X202170168Y-92679846D01*
X202365370Y-92198472D01*
X202564536Y-91718827D01*
X202564546Y-91707300D01*
X202568880Y-91696612D01*
X202565009Y-91177045D01*
X202565462Y-90657828D01*
X202561061Y-90647177D01*
X202560975Y-90635643D01*
X202170168Y-89692154D01*
X202165228Y-89689187D01*
X202160291Y-89677239D01*
X201410707Y-88926345D01*
X201395592Y-88920069D01*
X201391846Y-88913832D01*
X200910472Y-88718630D01*
X200610330Y-88594000D01*
X202744000Y-88594000D01*
X202744000Y-149900295D01*
X202424168Y-149128154D01*
X202419228Y-149125187D01*
X202414291Y-149113239D01*
X201664707Y-148362345D01*
X201649592Y-148356069D01*
X201645846Y-148349832D01*
X201164472Y-148154630D01*
X200684827Y-147955464D01*
X200673300Y-147955454D01*
X200662612Y-147951120D01*
X200143045Y-147954991D01*
X199623828Y-147954538D01*
X199613177Y-147958939D01*
X199601643Y-147959025D01*
X198658154Y-148349832D01*
X198655187Y-148354772D01*
X198643239Y-148359709D01*
X197892345Y-149109293D01*
X197886069Y-149124408D01*
X197879832Y-149128154D01*
X197684630Y-149609528D01*
X197485464Y-150089173D01*
X197485454Y-150100700D01*
X197481120Y-150111388D01*
X197484991Y-150630955D01*
X197484538Y-151150172D01*
X197488939Y-151160823D01*
X197489025Y-151172357D01*
X197879832Y-152115846D01*
X197884772Y-152118813D01*
X197889709Y-152130761D01*
X198639293Y-152881655D01*
X198654408Y-152887931D01*
X198658154Y-152894168D01*
X199139528Y-153089370D01*
X199619173Y-153288536D01*
X199630700Y-153288546D01*
X199641388Y-153292880D01*
X200160955Y-153289009D01*
X200680172Y-153289462D01*
X200690823Y-153285061D01*
X200702357Y-153284975D01*
X201645846Y-152894168D01*
X201648813Y-152889228D01*
X201660761Y-152884291D01*
X202411655Y-152134707D01*
X202417931Y-152119592D01*
X202424168Y-152115846D01*
X202619370Y-151634472D01*
X202744000Y-151334330D01*
X202744000Y-153468000D01*
X138135705Y-153468000D01*
X138907846Y-153148168D01*
X138910813Y-153143228D01*
X138922761Y-153138291D01*
X139673655Y-152388707D01*
X139679931Y-152373592D01*
X139686168Y-152369846D01*
X139881370Y-151888472D01*
X140080536Y-151408827D01*
X140080546Y-151397300D01*
X140084880Y-151386612D01*
X140081009Y-150867045D01*
X140081462Y-150347828D01*
X140077061Y-150337177D01*
X140076975Y-150325643D01*
X139686168Y-149382154D01*
X139681228Y-149379187D01*
X139676291Y-149367239D01*
X138926707Y-148616345D01*
X138911592Y-148610069D01*
X138907846Y-148603832D01*
X138426472Y-148408630D01*
X137946827Y-148209464D01*
X137935300Y-148209454D01*
X137924612Y-148205120D01*
X137405045Y-148208991D01*
X136885828Y-148208538D01*
X136875177Y-148212939D01*
X136863643Y-148213025D01*
X135920154Y-148603832D01*
X135917187Y-148608772D01*
X135905239Y-148613709D01*
X135154345Y-149363293D01*
X135148069Y-149378408D01*
X135141832Y-149382154D01*
X134946630Y-149863528D01*
X134822000Y-150163670D01*
X134822000Y-94000000D01*
X139765000Y-94000000D01*
X139765000Y-148000000D01*
X139808427Y-148230795D01*
X139944827Y-148442767D01*
X140152949Y-148584971D01*
X140400000Y-148635000D01*
X197000000Y-148635000D01*
X197230795Y-148591573D01*
X197442767Y-148455173D01*
X197584971Y-148247051D01*
X197635000Y-148000000D01*
X197635000Y-94000000D01*
X197591573Y-93769205D01*
X197455173Y-93557233D01*
X197247051Y-93415029D01*
X197000000Y-93365000D01*
X140400000Y-93365000D01*
X140169205Y-93408427D01*
X139957233Y-93544827D01*
X139815029Y-93752949D01*
X139765000Y-94000000D01*
X134822000Y-94000000D01*
X134822000Y-88594000D01*
X136946295Y-88594000D01*
X136174154Y-88913832D01*
X136174154Y-88913832D01*
G37*
X136174154Y-88913832D02*
X136171187Y-88918772D01*
X136159239Y-88923709D01*
X135408345Y-89673293D01*
X135402069Y-89688408D01*
X135395832Y-89692154D01*
X135200630Y-90173528D01*
X135001464Y-90653173D01*
X135001454Y-90664700D01*
X134997120Y-90675388D01*
X135000991Y-91194955D01*
X135000538Y-91714172D01*
X135004939Y-91724823D01*
X135005025Y-91736357D01*
X135395832Y-92679846D01*
X135400772Y-92682813D01*
X135405709Y-92694761D01*
X136155293Y-93445655D01*
X136170408Y-93451931D01*
X136174154Y-93458168D01*
X136655528Y-93653370D01*
X137135173Y-93852536D01*
X137146700Y-93852546D01*
X137157388Y-93856880D01*
X137676955Y-93853009D01*
X138196172Y-93853462D01*
X138206823Y-93849061D01*
X138218357Y-93848975D01*
X139161846Y-93458168D01*
X139164813Y-93453228D01*
X139176761Y-93448291D01*
X139927655Y-92698707D01*
X139933931Y-92683592D01*
X139940168Y-92679846D01*
X140135370Y-92198472D01*
X140334536Y-91718827D01*
X140334546Y-91707300D01*
X140338880Y-91696612D01*
X140335009Y-91177045D01*
X140335462Y-90657828D01*
X140331061Y-90647177D01*
X140330975Y-90635643D01*
X139940168Y-89692154D01*
X139935228Y-89689187D01*
X139930291Y-89677239D01*
X139180707Y-88926345D01*
X139165592Y-88920069D01*
X139161846Y-88913832D01*
X138680472Y-88718630D01*
X138380330Y-88594000D01*
X199176295Y-88594000D01*
X198404154Y-88913832D01*
X198401187Y-88918772D01*
X198389239Y-88923709D01*
X197638345Y-89673293D01*
X197632069Y-89688408D01*
X197625832Y-89692154D01*
X197430630Y-90173528D01*
X197231464Y-90653173D01*
X197231454Y-90664700D01*
X197227120Y-90675388D01*
X197230991Y-91194955D01*
X197230538Y-91714172D01*
X197234939Y-91724823D01*
X197235025Y-91736357D01*
X197625832Y-92679846D01*
X197630772Y-92682813D01*
X197635709Y-92694761D01*
X198385293Y-93445655D01*
X198400408Y-93451931D01*
X198404154Y-93458168D01*
X198885528Y-93653370D01*
X199365173Y-93852536D01*
X199376700Y-93852546D01*
X199387388Y-93856880D01*
X199906955Y-93853009D01*
X200426172Y-93853462D01*
X200436823Y-93849061D01*
X200448357Y-93848975D01*
X201391846Y-93458168D01*
X201394813Y-93453228D01*
X201406761Y-93448291D01*
X202157655Y-92698707D01*
X202163931Y-92683592D01*
X202170168Y-92679846D01*
X202365370Y-92198472D01*
X202564536Y-91718827D01*
X202564546Y-91707300D01*
X202568880Y-91696612D01*
X202565009Y-91177045D01*
X202565462Y-90657828D01*
X202561061Y-90647177D01*
X202560975Y-90635643D01*
X202170168Y-89692154D01*
X202165228Y-89689187D01*
X202160291Y-89677239D01*
X201410707Y-88926345D01*
X201395592Y-88920069D01*
X201391846Y-88913832D01*
X200910472Y-88718630D01*
X200610330Y-88594000D01*
X202744000Y-88594000D01*
X202744000Y-149900295D01*
X202424168Y-149128154D01*
X202419228Y-149125187D01*
X202414291Y-149113239D01*
X201664707Y-148362345D01*
X201649592Y-148356069D01*
X201645846Y-148349832D01*
X201164472Y-148154630D01*
X200684827Y-147955464D01*
X200673300Y-147955454D01*
X200662612Y-147951120D01*
X200143045Y-147954991D01*
X199623828Y-147954538D01*
X199613177Y-147958939D01*
X199601643Y-147959025D01*
X198658154Y-148349832D01*
X198655187Y-148354772D01*
X198643239Y-148359709D01*
X197892345Y-149109293D01*
X197886069Y-149124408D01*
X197879832Y-149128154D01*
X197684630Y-149609528D01*
X197485464Y-150089173D01*
X197485454Y-150100700D01*
X197481120Y-150111388D01*
X197484991Y-150630955D01*
X197484538Y-151150172D01*
X197488939Y-151160823D01*
X197489025Y-151172357D01*
X197879832Y-152115846D01*
X197884772Y-152118813D01*
X197889709Y-152130761D01*
X198639293Y-152881655D01*
X198654408Y-152887931D01*
X198658154Y-152894168D01*
X199139528Y-153089370D01*
X199619173Y-153288536D01*
X199630700Y-153288546D01*
X199641388Y-153292880D01*
X200160955Y-153289009D01*
X200680172Y-153289462D01*
X200690823Y-153285061D01*
X200702357Y-153284975D01*
X201645846Y-152894168D01*
X201648813Y-152889228D01*
X201660761Y-152884291D01*
X202411655Y-152134707D01*
X202417931Y-152119592D01*
X202424168Y-152115846D01*
X202619370Y-151634472D01*
X202744000Y-151334330D01*
X202744000Y-153468000D01*
X138135705Y-153468000D01*
X138907846Y-153148168D01*
X138910813Y-153143228D01*
X138922761Y-153138291D01*
X139673655Y-152388707D01*
X139679931Y-152373592D01*
X139686168Y-152369846D01*
X139881370Y-151888472D01*
X140080536Y-151408827D01*
X140080546Y-151397300D01*
X140084880Y-151386612D01*
X140081009Y-150867045D01*
X140081462Y-150347828D01*
X140077061Y-150337177D01*
X140076975Y-150325643D01*
X139686168Y-149382154D01*
X139681228Y-149379187D01*
X139676291Y-149367239D01*
X138926707Y-148616345D01*
X138911592Y-148610069D01*
X138907846Y-148603832D01*
X138426472Y-148408630D01*
X137946827Y-148209464D01*
X137935300Y-148209454D01*
X137924612Y-148205120D01*
X137405045Y-148208991D01*
X136885828Y-148208538D01*
X136875177Y-148212939D01*
X136863643Y-148213025D01*
X135920154Y-148603832D01*
X135917187Y-148608772D01*
X135905239Y-148613709D01*
X135154345Y-149363293D01*
X135148069Y-149378408D01*
X135141832Y-149382154D01*
X134946630Y-149863528D01*
X134822000Y-150163670D01*
X134822000Y-94000000D01*
X139765000Y-94000000D01*
X139765000Y-148000000D01*
X139808427Y-148230795D01*
X139944827Y-148442767D01*
X140152949Y-148584971D01*
X140400000Y-148635000D01*
X197000000Y-148635000D01*
X197230795Y-148591573D01*
X197442767Y-148455173D01*
X197584971Y-148247051D01*
X197635000Y-148000000D01*
X197635000Y-94000000D01*
X197591573Y-93769205D01*
X197455173Y-93557233D01*
X197247051Y-93415029D01*
X197000000Y-93365000D01*
X140400000Y-93365000D01*
X140169205Y-93408427D01*
X139957233Y-93544827D01*
X139815029Y-93752949D01*
X139765000Y-94000000D01*
X134822000Y-94000000D01*
X134822000Y-88594000D01*
X136946295Y-88594000D01*
X136174154Y-88913832D01*
M02*
