M48
;DRILL file {KiCad 4.0.5} date 03/19/17 16:49:35
;FORMAT={2:4/ absolute / inch / suppress leading zeros}
FMAT,2
INCH,TZ
T1C0.031
T2C0.039
T3C0.120
%
G90
G05
M72
T1
X56929Y-44488
X57677Y-46260
X57677Y-48189
X57913Y-44528
X58268Y-43701
X59055Y-43701
X59843Y-43701
X59843Y-49409
X60433Y-49409
X61024Y-49409
X61220Y-39764
X63189Y-39370
X63780Y-51378
X64409Y-49370
X64409Y-48583
X64646Y-57402
X64961Y-41535
X65551Y-53937
X65673Y-47957
X66142Y-46850
X66339Y-53937
X67126Y-53937
X67520Y-46260
X67913Y-53937
X68406Y-49114
X68425Y-50157
X68898Y-40748
X69685Y-46260
X71063Y-38386
X71063Y-39370
X71063Y-46850
X71063Y-49803
X71063Y-51772
X71063Y-53740
X71063Y-55709
X71457Y-46260
T2
X56300Y-57600
X57300Y-57600
X58300Y-57600
X59300Y-57600
X59646Y-37945
X59646Y-38945
X59646Y-39945
X59646Y-40945
X60300Y-57600
X61300Y-57600
X62300Y-57600
X63300Y-57600
X67323Y-55102
X67323Y-56102
X68323Y-55102
X68323Y-56102
X69323Y-55102
X69323Y-56102
X76900Y-38400
X76900Y-39400
X76900Y-40400
X76900Y-41400
X76900Y-42400
X76900Y-43400
X76900Y-44400
X76900Y-45400
X76900Y-49800
X76900Y-50800
X76900Y-51800
X76900Y-52800
X76900Y-53800
X76900Y-54800
X76900Y-55800
X76900Y-56800
T3
X54100Y-59400
X54200Y-35900
X78700Y-35900
X78800Y-59300
T0
M30
